<svg width="16" height="16" viewBox="0 0 16 16" fill="none" xmlns="http://www.w3.org/2000/svg">
<path d="M11.4675 10.7367L7.99534 7.23791L4.52313 10.7367C4.44028 10.8202 4.34192 10.8864 4.23367 10.9316C4.12542 10.9767 4.0094 11 3.89223 11C3.77506 11 3.65904 10.9767 3.55079 10.9316C3.44254 10.8864 3.34418 10.8202 3.26133 10.7367C3.17848 10.6532 3.11276 10.5541 3.06792 10.445C3.02308 10.3359 3 10.219 3 10.1009C3 9.98288 3.02308 9.86597 3.06792 9.75689C3.11276 9.64781 3.17848 9.5487 3.26133 9.46521L7.36891 5.32621C7.4517 5.24261 7.55004 5.17629 7.6583 5.13104C7.76655 5.08579 7.88261 5.0625 7.99981 5.0625C8.11701 5.0625 8.23307 5.08579 8.34133 5.13104C8.44958 5.17629 8.54792 5.24261 8.63071 5.32621L12.7383 9.46521C12.8213 9.54864 12.8871 9.64773 12.932 9.75682C12.9769 9.8659 13 9.98284 13 10.1009C13 10.219 12.9769 10.336 12.932 10.4451C12.8871 10.5542 12.8213 10.6532 12.7383 10.7367C12.3893 11.0793 11.8165 11.0884 11.4675 10.7367Z" fill="white"/>
</svg>
