<svg width="16" height="16" viewBox="0 0 16 16" fill="none" xmlns="http://www.w3.org/2000/svg">
<path d="M5.26333 11.4675L8.76209 7.99534L5.26333 4.52313C5.17984 4.44028 5.11362 4.34192 5.06844 4.23367C5.02326 4.12542 5 4.0094 5 3.89223C5 3.77506 5.02326 3.65904 5.06844 3.55079C5.11362 3.44254 5.17984 3.34418 5.26333 3.26133C5.34681 3.17848 5.44593 3.11276 5.555 3.06792C5.66408 3.02308 5.78099 3 5.89906 3C6.01712 3 6.13403 3.02308 6.24311 3.06792C6.35219 3.11276 6.4513 3.17848 6.53479 3.26133L10.6738 7.36891C10.7574 7.4517 10.8237 7.55004 10.869 7.6583C10.9142 7.76656 10.9375 7.88261 10.9375 7.99981C10.9375 8.11701 10.9142 8.23307 10.869 8.34133C10.8237 8.44958 10.7574 8.54792 10.6738 8.63071L6.53479 12.7383C6.45136 12.8213 6.35227 12.8871 6.24318 12.932C6.1341 12.9769 6.01716 13 5.89906 13C5.78096 13 5.66402 12.9769 5.55493 12.932C5.44584 12.8871 5.34675 12.8213 5.26333 12.7383C4.92067 12.3893 4.91165 11.8165 5.26333 11.4675Z" fill="white"/>
</svg>
