<svg width="24" height="24" viewBox="0 0 24 24" fill="none" xmlns="http://www.w3.org/2000/svg">
<path d="M12.1716 9.8567L11.9916 9.67005L11.8116 9.8567L5.56167 16.3386C5.43532 16.4697 5.28581 16.5731 5.12193 16.6435C4.95808 16.7139 4.7828 16.75 4.60602 16.75C4.42923 16.75 4.25395 16.7139 4.0901 16.6435C3.92622 16.5731 3.77671 16.4697 3.65036 16.3386C3.52398 16.2076 3.42328 16.0515 3.35442 15.8791C3.28555 15.7066 3.25 15.5215 3.25 15.3344C3.25 15.1472 3.28555 14.9621 3.35442 14.7897C3.42328 14.6173 3.52398 14.4612 3.65036 14.3301L11.044 6.66208L11.0442 6.6619C11.1704 6.53071 11.3199 6.42713 11.4837 6.35664C11.6476 6.28615 11.8229 6.25 11.9997 6.25C12.1765 6.25 12.3518 6.28615 12.5156 6.35664C12.6794 6.42713 12.8289 6.53071 12.9551 6.6619L12.9553 6.66208L20.349 14.3301L20.3491 14.3303C20.4757 14.4613 20.5765 14.6173 20.6454 14.7897C20.7144 14.9621 20.75 15.1472 20.75 15.3344C20.75 15.5215 20.7144 15.7067 20.6454 15.8791C20.5767 16.051 20.4762 16.2066 20.3502 16.3374C19.8167 16.8753 18.9482 16.8848 18.4215 16.3386L12.1716 9.8567Z" fill="#1D1D1F" stroke="white" stroke-width="0.5"/>
</svg>
