<svg width="24" height="24" viewBox="0 0 24 24" fill="none" xmlns="http://www.w3.org/2000/svg">
<path d="M11.8284 14.1433L12.0084 14.3299L12.1884 14.1433L18.4383 7.66138C18.5647 7.53033 18.7142 7.42689 18.8781 7.35649C19.0419 7.2861 19.2172 7.25 19.394 7.25C19.5708 7.25 19.746 7.2861 19.9099 7.35649C20.0738 7.42689 20.2233 7.53033 20.3496 7.66138C20.476 7.79244 20.5767 7.94852 20.6456 8.12094C20.7144 8.29337 20.75 8.47848 20.75 8.66562C20.75 8.85276 20.7144 9.03787 20.6456 9.2103C20.5767 9.38272 20.476 9.5388 20.3496 9.66987L12.956 17.3379L12.9558 17.3381C12.8296 17.4693 12.6801 17.5729 12.5163 17.6434C12.3524 17.7138 12.1771 17.75 12.0003 17.75C11.8235 17.75 11.6482 17.7138 11.4844 17.6434C11.3206 17.5729 11.1711 17.4693 11.0449 17.3381L11.0447 17.3379L3.65104 9.66987L3.65086 9.66968C3.52435 9.53874 3.42352 9.38272 3.35456 9.21032C3.2856 9.03791 3.25 8.85278 3.25 8.66562C3.25 8.47846 3.2856 8.29333 3.35456 8.12092C3.42333 7.94899 3.5238 7.79335 3.64983 7.66264C4.18329 7.1247 5.05182 7.11518 5.57846 7.66138L11.8284 14.1433Z" fill="#1D1D1F" stroke="white" stroke-width="0.5"/>
</svg>
