<svg width="16" height="16" viewBox="0 0 16 16" fill="none" xmlns="http://www.w3.org/2000/svg">
<path d="M4.53246 5.2661L8.00466 8.80169L11.4769 5.2661C11.5597 5.18174 11.6581 5.11482 11.7663 5.06916C11.8746 5.0235 11.9906 5 12.1078 5C12.2249 5 12.341 5.0235 12.4492 5.06916C12.5575 5.11482 12.6558 5.18174 12.7387 5.2661C12.8215 5.35046 12.8872 5.45062 12.9321 5.56085C12.9769 5.67107 13 5.78921 13 5.90852C13 6.02783 12.9769 6.14597 12.9321 6.2562C12.8872 6.36642 12.8215 6.46658 12.7387 6.55094L8.63109 10.7335C8.5483 10.818 8.44996 10.885 8.3417 10.9307C8.23345 10.9765 8.11739 11 8.00019 11C7.88299 11 7.76693 10.9765 7.65868 10.9307C7.55042 10.885 7.45208 10.818 7.36929 10.7335L3.26171 6.55094C3.17875 6.46664 3.11293 6.36651 3.06802 6.25627C3.02311 6.14604 3 6.02786 3 5.90852C3 5.78918 3.02311 5.67101 3.06802 5.56077C3.11293 5.45054 3.17875 5.3504 3.26171 5.2661C3.61072 4.91983 4.18345 4.91072 4.53246 5.2661Z" fill="#1D1D1F"/>
</svg>
