<svg width="102" height="84" viewBox="0 0 102 84" fill="none" xmlns="http://www.w3.org/2000/svg">
<path d="M100.986 77.532C100.23 76.2756 97.96 76.7751 93.1787 71.0643C92.181 69.8645 91.0948 68.7412 89.9294 67.7036C92.5773 64.4111 93.3338 59.987 90.3077 55.4494C84.2554 46.3666 78.2031 22.9026 78.2031 22.9026C74.9159 11.9275 61.5215 10.4137 54.3722 10.4137C52.9597 8.00147 51.1263 5.86218 48.9592 4.09732C40.5578 -2.96836 35.368 0.763169 40.3687 3.07172C44.9079 5.16456 43.705 9.63407 43.4402 10.444C41.3333 8.8696 37.543 7.0379 31.2903 7.11359C20.3205 7.21577 18.8074 13.4413 24.1032 11.9275C26.9175 11.1214 28.771 12.2227 29.8907 13.4413C26.0891 15.2957 22.8549 18.2476 21.4553 22.9026C21.4553 22.9026 15.403 46.3666 9.35071 55.4494C6.32457 59.9908 7.0811 64.396 9.72898 67.6885C8.72618 68.845 7.81077 70.0746 6.99032 71.3671C2.97311 77.6493 0.665675 77.4223 0.0717937 78.7771C-0.522088 80.132 2.60619 81.1841 8.05704 74.0465C9.22312 72.4855 10.6925 71.1763 12.3769 70.1976C15.0237 72.1056 18.1933 73.1521 21.4553 73.195C23.8283 73.1973 26.1874 73.5571 28.4533 74.2622C27.4982 75.0956 26.5962 75.988 25.7524 76.9341C20.9446 82.2929 18.7772 81.7253 18.0055 82.9098C17.2338 84.0944 20.0444 85.6006 26.3501 79.6551C28.998 77.146 31.7404 76.2112 34.0138 75.969C37.543 76.9341 42.1806 77.778 49.8443 77.778C57.508 77.778 62.1645 76.9303 65.6975 75.9652C67.9672 76.1999 70.7323 77.1233 73.4142 79.6551C79.7199 85.6006 82.5305 84.0981 81.7588 82.9098C80.9872 81.7215 78.8197 82.2929 74.0119 76.9341C73.1628 75.982 72.2544 75.0845 71.2921 74.2471C73.5343 73.5534 75.8675 73.1988 78.2144 73.195C81.387 73.1558 84.4751 72.1673 87.081 70.3566C89.126 71.0939 90.9741 72.2916 92.4827 73.8573C98.7771 80.238 101.743 78.7885 100.986 77.532Z" fill="#8C81D1"/>
<path d="M42.9531 65.864C43.5736 63.7079 45.559 59.5576 48.5372 60.2044C52.2599 61.0129 53.5009 58.5871 55.3622 65.864" stroke="#38327C" stroke-linecap="round"/>
<path d="M27.3184 51.8316C27.3184 51.8316 28.4532 56.04 31.8576 57.0164C35.262 57.9928 37.7472 53.3908 37.6375 51.4531C37.6375 51.4531 32.5914 54.8024 27.3184 51.8316Z" fill="#38327C"/>
<path d="M73.4666 52.2105C73.4666 52.2105 72.2486 56.4189 68.6361 57.3953C65.0236 58.3717 62.3871 53.7697 62.5006 51.832C62.4968 51.832 67.8607 55.1813 73.4666 52.2105Z" fill="#38327C"/>
<path opacity="0.77" d="M24.6699 22.3357C24.6699 22.3357 23.5351 21.9572 22.4003 26.3094C21.2655 30.6616 12.1871 55.2155 10.674 56.2979C9.16094 57.3803 8.09422 66.3723 16.9495 67.6514C25.8047 68.9306 20.8873 56.2979 20.8873 52.6761C20.8873 49.0543 28.4526 21.2495 24.6699 22.3357Z" fill="#EBEAF6"/>
<path opacity="0.77" d="M26.5616 21.2004C27.1883 21.2004 27.6964 20.6921 27.6964 20.065C27.6964 19.438 27.1883 18.9297 26.5616 18.9297C25.9348 18.9297 25.4268 19.438 25.4268 20.065C25.4268 20.6921 25.9348 21.2004 26.5616 21.2004Z" fill="#EBEAF6"/>
<path d="M32.6151 55.8257C35.8532 55.8257 38.4783 53.1994 38.4783 49.9597C38.4783 46.72 35.8532 44.0938 32.6151 44.0938C29.377 44.0938 26.752 46.72 26.752 49.9597C26.752 53.1994 29.377 55.8257 32.6151 55.8257Z" fill="white"/>
<path d="M67.9898 56.2042C71.3324 56.2042 74.0421 53.4932 74.0421 50.149C74.0421 46.8048 71.3324 44.0938 67.9898 44.0938C64.6472 44.0938 61.9375 46.8048 61.9375 50.149C61.9375 53.4932 64.6472 56.2042 67.9898 56.2042Z" fill="white"/>
<path d="M8.40234 68.8848C9.22423 69.8506 9.74966 71.0334 9.91542 72.2909C9.91542 72.2909 13.3198 72.2909 14.4546 71.534C14.4546 71.534 11.0502 69.6417 9.28371 67.125C9.28371 67.125 8.40234 68.1279 8.40234 68.8848Z" fill="#38327C"/>
<path d="M91.2437 68.8848C90.4218 69.8506 89.8964 71.0334 89.7306 72.2909C89.7306 72.2909 86.3262 72.2909 85.1914 71.534C85.1914 71.534 88.5958 69.6417 90.3623 67.125C90.3623 67.125 91.2437 68.1279 91.2437 68.8848Z" fill="#38327C"/>
<path d="M28.0272 74.1484C28.0272 74.1484 32.8766 75.3519 34.4577 76.0937C34.4577 76.0937 31.8666 76.4721 31.1101 77.6075C31.1101 77.6075 27.7056 75.7152 25.0578 75.7152C25.0464 75.6963 25.7122 74.489 28.0272 74.1484Z" fill="#38327C"/>
<path d="M71.5722 74.1484C71.5722 74.1484 66.7228 75.3519 65.1416 76.0937C65.1416 76.0937 67.7327 76.4721 68.4893 77.6075C68.4893 77.6075 71.8937 75.7152 74.5416 75.7152C74.5416 75.6963 73.8758 74.489 71.5722 74.1484Z" fill="#38327C"/>
</svg>
