<svg width="540" height="368" viewBox="0 0 540 368" fill="none" xmlns="http://www.w3.org/2000/svg">
<rect width="540" height="368" rx="16" fill="#F8F8FC"/>
<line x1="234.5" y1="270" x2="234.5" y2="154" stroke="#D8D8D8"/>
<mask id="mask0_2815_202131" style="mask-type:alpha" maskUnits="userSpaceOnUse" x="0" y="242" width="540" height="126">
<rect y="242" width="540" height="126" fill="#C4C4C4"/>
</mask>
<g mask="url(#mask0_2815_202131)">
<g filter="url(#filter0_d_2815_202131)">
<rect width="480" height="45" transform="translate(30 268)" fill="white"/>
<path d="M47.8745 295H54.2319V294.125H49.2553V294.057L51.7162 291.404C53.4252 289.6 53.9311 288.766 53.9311 287.658C53.9311 286.141 52.6938 284.965 50.978 284.965C49.2416 284.965 47.9565 286.141 47.9565 287.809H48.8862C48.8862 286.646 49.6996 285.819 50.9506 285.826C52.1264 285.819 53.0151 286.564 53.0287 287.658C53.0151 288.595 52.4887 289.278 51.2241 290.666L47.8745 294.289V295ZM59.5158 295.137C61.6212 295.137 62.8517 293.264 62.8517 290.051C62.8517 286.858 61.6076 284.965 59.5158 284.965C57.4171 284.965 56.1662 286.858 56.1662 290.051C56.1662 293.264 57.4035 295.137 59.5158 295.137ZM57.1232 290.051C57.1164 287.371 58.0119 285.819 59.5158 285.826C61.006 285.819 61.9015 287.371 61.9084 290.051C61.9015 292.73 61.0128 294.262 59.5158 294.262C58.005 294.262 57.1164 292.73 57.1232 290.051ZM64.8407 295H71.1981V294.125H66.2216V294.057L68.6825 291.404C70.3915 289.6 70.8973 288.766 70.8973 287.658C70.8973 286.141 69.66 284.965 67.9442 284.965C66.2079 284.965 64.9227 286.141 64.9227 287.809H65.8524C65.8524 286.646 66.6659 285.819 67.9169 285.826C69.0927 285.819 69.9813 286.564 69.995 287.658C69.9813 288.595 69.455 289.278 68.1903 290.666L64.8407 294.289V295ZM73.3648 295H79.7223V294.125H74.7457V294.057L77.2066 291.404C78.9156 289.6 79.4215 288.766 79.4215 287.658C79.4215 286.141 78.1842 284.965 76.4684 284.965C74.732 284.965 73.4469 286.141 73.4469 287.809H74.3766C74.3766 286.646 75.19 285.819 76.441 285.826C77.6168 285.819 78.5055 286.564 78.5191 287.658C78.5055 288.595 77.9791 289.278 76.7145 290.666L73.3648 294.289V295ZM88.8545 284.637H87.9932L84.8077 296.49H85.669L88.8545 284.637ZM94.1997 285.102V295H95.1157V287.111H95.1977L98.479 295H99.354L102.635 287.111H102.717V295H103.647V285.102H102.499L98.9712 293.605H98.8755L95.3344 285.102H94.1997ZM105.909 292.922C105.903 294.351 107.003 295.171 108.357 295.164C109.601 295.171 110.339 294.487 110.64 293.852H110.695V295H111.624V289.982C111.624 287.945 110.052 287.474 108.945 287.467C107.4 287.474 106.272 288.246 106.114 289.422H107.085C107.263 288.745 107.919 288.294 108.89 288.301C110.059 288.294 110.701 288.902 110.695 289.9V290.598C110.339 290.611 109.143 290.693 108.644 290.721C107.126 290.844 105.903 291.411 105.909 292.922ZM106.839 292.963C106.839 292.108 107.468 291.603 108.78 291.514C109.15 291.493 110.325 291.404 110.695 291.37V292.17C110.701 293.353 109.854 294.33 108.493 294.33C107.543 294.33 106.839 293.838 106.839 292.963ZM114.228 297.789C115.24 297.782 115.924 297.249 116.334 296.148L119.465 287.576H118.467L116.293 293.797H116.225L114.064 287.576H113.053L115.787 295.068L115.527 295.793C115.131 296.88 114.652 296.941 114.174 296.941C114.023 296.941 113.811 296.935 113.723 296.928L113.709 297.762C113.832 297.775 114.03 297.782 114.228 297.789ZM128.091 284.637H127.23L124.044 296.49H124.906L128.091 284.637ZM136.389 285.102H135.378L133.012 286.66V287.658L135.35 286.113H135.405V295H136.389V285.102ZM142.576 285.102H141.564L139.199 286.66V287.658L141.537 286.113H141.591V295H142.576V285.102ZM153.335 285.102H151.394L148.946 286.66V288.479L151.216 287.057H151.27V295H153.335V285.102ZM155.912 295H162.994V293.305H158.769V293.25L160.273 291.787C162.31 289.941 162.857 289.019 162.857 287.891C162.857 286.175 161.449 284.965 159.33 284.965C157.245 284.965 155.809 286.202 155.816 288.137H157.771C157.764 287.187 158.373 286.599 159.302 286.605C160.212 286.599 160.875 287.146 160.875 288.027C160.875 288.813 160.376 289.36 159.453 290.242L155.898 293.51L155.912 295ZM165.94 293.852C166.548 293.852 167.075 293.339 167.075 292.703C167.075 292.074 166.548 291.562 165.94 291.568C165.297 291.562 164.778 292.074 164.791 292.703C164.778 293.339 165.297 293.852 165.94 293.852ZM164.791 287.836C164.778 288.472 165.297 288.984 165.94 288.984C166.548 288.984 167.075 288.472 167.075 287.836C167.075 287.207 166.548 286.694 165.94 286.701C165.297 286.694 164.778 287.207 164.791 287.836ZM172.605 295.137C174.833 295.137 176.351 293.708 176.351 291.705C176.351 289.805 174.997 288.444 173.179 288.451C172.311 288.444 171.559 288.8 171.196 289.285H171.114L171.388 286.783H175.79V285.102H169.692L169.159 290.803H171.019C171.313 290.249 171.832 289.969 172.577 289.969C173.616 289.976 174.361 290.707 174.355 291.76C174.361 292.792 173.63 293.517 172.605 293.51C171.743 293.517 171.039 292.983 170.991 292.211H168.995C169.029 293.92 170.54 295.137 172.605 295.137ZM181.689 295.137C183.925 295.137 185.531 293.92 185.517 292.225C185.531 290.987 184.731 290.105 183.275 289.928V289.846C184.383 289.647 185.155 288.861 185.148 287.754C185.155 286.188 183.781 284.965 181.717 284.965C179.686 284.965 178.155 286.147 178.121 287.85H180.09C180.124 287.091 180.842 286.599 181.717 286.605C182.592 286.599 183.173 287.118 183.166 287.877C183.173 288.656 182.489 289.189 181.512 289.189H180.596V290.707H181.512C182.674 290.714 183.391 291.281 183.385 292.088C183.391 292.888 182.687 293.435 181.703 293.441C180.746 293.435 180.028 292.949 179.994 292.211H177.916C177.957 293.94 179.515 295.137 181.689 295.137ZM188.45 293.852C189.058 293.852 189.585 293.339 189.585 292.703C189.585 292.074 189.058 291.562 188.45 291.568C187.807 291.562 187.288 292.074 187.301 292.703C187.288 293.339 187.807 293.852 188.45 293.852ZM187.301 287.836C187.288 288.472 187.807 288.984 188.45 288.984C189.058 288.984 189.585 288.472 189.585 287.836C189.585 287.207 189.058 286.694 188.45 286.701C187.807 286.694 187.288 287.207 187.301 287.836ZM195.32 295.137C197.794 295.137 199.298 293.305 199.298 290.051C199.298 286.817 197.787 284.965 195.32 284.965C192.852 284.965 191.341 286.817 191.341 290.051C191.341 293.291 192.838 295.137 195.32 295.137ZM193.447 290.051C193.447 287.788 194.178 286.653 195.32 286.646C196.461 286.653 197.199 287.788 197.193 290.051C197.199 292.334 196.468 293.441 195.32 293.441C194.171 293.441 193.433 292.334 193.447 290.051ZM201.109 295H203.242L207.412 286.811V285.102H200.426V286.783H205.279V286.852L201.109 295Z" fill="#484848"/>
<line x1="234.5" y1="268" x2="234.5" y2="313" stroke="#D8D8D8"/>
<rect x="227.5" y="283.5" width="13" height="13" rx="6.5" fill="#6638B6" stroke="#EBEAF6" stroke-width="3"/>
<line x1="234.5" y1="268" x2="234.5" y2="282" stroke="#D8D8D8"/>
<path d="M265.711 289.328H267.229C266.894 287.202 265.232 285.965 263.141 285.965C260.577 285.965 258.684 287.886 258.684 291.051C258.684 294.216 260.563 296.137 263.141 296.137C265.321 296.137 266.914 294.77 267.229 292.814L265.711 292.801C265.451 294.065 264.398 294.763 263.154 294.756C261.452 294.763 260.181 293.464 260.174 291.051C260.181 288.651 261.445 287.339 263.154 287.346C264.412 287.339 265.472 288.05 265.711 289.328ZM270.475 291.598C270.475 290.415 271.22 289.738 272.253 289.738C273.237 289.738 273.825 290.367 273.825 291.461V296H275.288V291.283C275.288 289.424 274.269 288.48 272.745 288.48C271.59 288.48 270.892 288.986 270.544 289.793H270.448V286.102H269.012V296H270.475V291.598ZM276.99 293.908C276.983 295.357 278.083 296.164 279.492 296.164C280.722 296.164 281.406 295.542 281.693 294.988H281.747V296H283.169V291.064C283.163 288.911 281.44 288.48 280.257 288.48C278.5 288.48 277.352 289.369 277.222 290.6H278.671C278.822 290.053 279.341 289.656 280.203 289.656C281.194 289.656 281.713 290.142 281.706 290.982L281.713 291.577C281.372 291.591 280.257 291.652 279.765 291.68C278.425 291.775 276.983 292.213 276.99 293.908ZM278.412 293.922C278.412 293.19 279.013 292.828 279.97 292.76C280.319 292.739 281.378 292.664 281.713 292.644L281.72 293.32C281.72 294.202 281.009 294.995 279.82 295.002C278.999 294.995 278.412 294.633 278.412 293.922ZM286.676 291.598C286.676 290.415 287.394 289.738 288.399 289.738C289.383 289.738 289.964 290.381 289.971 291.461V296H291.42V291.283C291.427 289.444 290.415 288.48 288.891 288.48C287.783 288.48 287.052 288.993 286.703 289.793H286.621V288.576H285.213V296H286.676V291.598ZM296.595 298.939C298.509 298.939 299.951 298.071 299.944 296.164V288.576H298.522V289.779H298.427C298.153 289.314 297.647 288.48 296.266 288.48C294.482 288.48 293.149 289.841 293.149 292.213C293.149 294.585 294.503 295.891 296.253 295.891C297.62 295.891 298.153 295.125 298.413 294.646H298.509V296.109C298.502 297.265 297.77 297.771 296.608 297.764C295.644 297.771 294.988 297.429 294.845 296.725H293.354C293.484 298.112 294.722 298.939 296.595 298.939ZM294.64 292.24C294.633 290.818 295.289 289.718 296.581 289.725C297.839 289.718 298.522 290.736 298.522 292.24C298.522 293.771 297.825 294.681 296.581 294.688C295.303 294.681 294.633 293.696 294.64 292.24ZM302.002 296H303.464V288.576H302.002V296ZM301.81 286.566C301.817 287.045 302.234 287.435 302.74 287.428C303.239 287.435 303.656 287.045 303.656 286.566C303.656 286.088 303.239 285.705 302.74 285.705C302.234 285.705 301.817 286.088 301.81 286.566ZM306.985 291.598C306.985 290.415 307.702 289.738 308.707 289.738C309.692 289.738 310.273 290.381 310.28 291.461V296H311.729V291.283C311.736 289.444 310.724 288.48 309.2 288.48C308.092 288.48 307.361 288.993 307.012 289.793H306.93V288.576H305.522V296H306.985V291.598ZM316.903 298.939C318.817 298.939 320.26 298.071 320.253 296.164V288.576H318.831V289.779H318.735C318.462 289.314 317.956 288.48 316.575 288.48C314.791 288.48 313.458 289.841 313.458 292.213C313.458 294.585 314.812 295.891 316.562 295.891C317.929 295.891 318.462 295.125 318.722 294.646H318.817V296.109C318.811 297.265 318.079 297.771 316.917 297.764C315.953 297.771 315.297 297.429 315.153 296.725H313.663C313.793 298.112 315.03 298.939 316.903 298.939ZM314.948 292.24C314.941 290.818 315.598 289.718 316.89 289.725C318.147 289.718 318.831 290.736 318.831 292.24C318.831 293.771 318.134 294.681 316.89 294.688C315.611 294.681 314.941 293.696 314.948 292.24ZM327.471 291.598C327.471 290.415 328.189 289.738 329.194 289.738C330.178 289.738 330.759 290.381 330.766 291.461V296H332.215V291.283C332.222 289.444 331.21 288.48 329.686 288.48C328.579 288.48 327.847 288.993 327.499 289.793H327.416V288.576H326.008V296H327.471V291.598ZM337.472 296.15C339.106 296.15 340.247 295.344 340.575 294.141H339.099C338.853 294.592 338.313 294.947 337.486 294.947C336.269 294.947 335.435 294.147 335.394 292.732H340.671V292.213C340.671 289.526 339.065 288.48 337.376 288.48C335.305 288.48 333.938 290.053 333.945 292.336C333.938 294.64 335.284 296.15 337.472 296.15ZM335.401 291.639C335.462 290.593 336.221 289.677 337.39 289.684C338.504 289.677 339.236 290.511 339.236 291.639H335.401ZM345.873 288.576H344.355V286.799H342.906V288.576H341.812V289.738H342.906V294.113C342.893 295.467 343.925 296.096 345.066 296.096C345.47 296.096 345.784 296.068 345.982 296.041V294.77C345.777 294.79 345.456 294.811 345.244 294.811C344.772 294.804 344.362 294.653 344.355 293.812V289.738H345.873V288.576ZM349.174 296H350.678L352.169 290.654H352.278L353.782 296H355.272L357.446 288.576H355.942L354.506 293.99H354.424L352.989 288.576H351.485L350.036 294.018H349.954L348.505 288.576H347.001L349.174 296ZM361.841 296.15C363.933 296.15 365.3 294.619 365.3 292.322C365.3 290.012 363.933 288.48 361.841 288.48C359.736 288.48 358.362 290.012 358.369 292.322C358.362 294.619 359.736 296.15 361.841 296.15ZM359.831 292.322C359.831 290.9 360.481 289.69 361.841 289.684C363.181 289.69 363.824 290.9 363.824 292.322C363.824 293.737 363.181 294.934 361.841 294.934C360.481 294.934 359.831 293.737 359.831 292.322ZM367.016 296H368.479V291.475C368.479 290.504 369.231 289.8 370.242 289.807C370.543 289.8 370.885 289.861 371.008 289.889V288.494C370.857 288.48 370.57 288.46 370.393 288.467C369.524 288.46 368.779 288.959 368.506 289.752H368.424V288.576H367.016V296ZM372.382 296H373.845V293.361L374.549 292.664L377.071 296H378.862L375.656 291.762L378.657 288.576H376.907L373.968 291.707H373.845V286.102H372.382V296ZM387.953 290.6H389.362C389.218 289.321 388.186 288.48 386.531 288.48C384.809 288.48 383.66 289.39 383.66 290.709C383.66 291.734 384.358 292.452 385.698 292.746L386.86 292.992C387.646 293.177 388.001 293.484 388.008 293.963C388.001 294.585 387.393 294.981 386.449 294.975C385.568 294.981 385.062 294.646 384.932 293.977H383.442C383.626 295.357 384.679 296.15 386.463 296.15C388.357 296.15 389.491 295.193 389.498 293.854C389.491 292.801 388.828 292.151 387.461 291.844L386.285 291.57C385.465 291.379 385.116 291.064 385.123 290.627C385.116 290.06 385.711 289.629 386.545 289.629C387.352 289.629 387.817 290.012 387.953 290.6ZM394.399 296.15C396.033 296.15 397.175 295.344 397.503 294.141H396.026C395.78 294.592 395.24 294.947 394.413 294.947C393.196 294.947 392.362 294.147 392.321 292.732H397.599V292.213C397.599 289.526 395.992 288.48 394.304 288.48C392.232 288.48 390.865 290.053 390.872 292.336C390.865 294.64 392.212 296.15 394.399 296.15ZM392.328 291.639C392.39 290.593 393.148 289.677 394.317 289.684C395.432 289.677 396.163 290.511 396.163 291.639H392.328ZM402.8 288.576H401.283V286.799H399.834V288.576H398.74V289.738H399.834V294.113C399.82 295.467 400.852 296.096 401.994 296.096C402.397 296.096 402.712 296.068 402.91 296.041V294.77C402.705 294.79 402.383 294.811 402.172 294.811C401.7 294.804 401.29 294.653 401.283 293.812V289.738H402.8V288.576ZM407.975 288.576H406.457V286.799H405.008V288.576H403.914V289.738H405.008V294.113C404.995 295.467 406.027 296.096 407.168 296.096C407.572 296.096 407.886 296.068 408.084 296.041V294.77C407.879 294.79 407.558 294.811 407.346 294.811C406.874 294.804 406.464 294.653 406.457 293.812V289.738H407.975V288.576ZM409.677 296H411.14V288.576H409.677V296ZM409.485 286.566C409.492 287.045 409.909 287.435 410.415 287.428C410.914 287.435 411.331 287.045 411.331 286.566C411.331 286.088 410.914 285.705 410.415 285.705C409.909 285.705 409.492 286.088 409.485 286.566ZM414.66 291.598C414.66 290.415 415.378 289.738 416.383 289.738C417.367 289.738 417.948 290.381 417.955 291.461V296H419.404V291.283C419.411 289.444 418.399 288.48 416.875 288.48C415.767 288.48 415.036 288.993 414.687 289.793H414.605V288.576H413.197V296H414.66V291.598ZM424.579 298.939C426.493 298.939 427.935 298.071 427.928 296.164V288.576H426.506V289.779H426.411C426.137 289.314 425.631 288.48 424.251 288.48C422.466 288.48 421.133 289.841 421.133 292.213C421.133 294.585 422.487 295.891 424.237 295.891C425.604 295.891 426.137 295.125 426.397 294.646H426.493V296.109C426.486 297.265 425.754 297.771 424.592 297.764C423.628 297.771 422.972 297.429 422.829 296.725H421.338C421.468 298.112 422.706 298.939 424.579 298.939ZM422.624 292.24C422.617 290.818 423.273 289.718 424.565 289.725C425.823 289.718 426.506 290.736 426.506 292.24C426.506 293.771 425.809 294.681 424.565 294.688C423.287 294.681 422.617 293.696 422.624 292.24ZM434.156 290.6H435.564C435.42 289.321 434.388 288.48 432.734 288.48C431.011 288.48 429.863 289.39 429.863 290.709C429.863 291.734 430.56 292.452 431.9 292.746L433.062 292.992C433.848 293.177 434.203 293.484 434.21 293.963C434.203 294.585 433.595 294.981 432.652 294.975C431.77 294.981 431.264 294.646 431.134 293.977H429.644C429.828 295.357 430.881 296.15 432.665 296.15C434.559 296.15 435.694 295.193 435.7 293.854C435.694 292.801 435.031 292.151 433.663 291.844L432.488 291.57C431.667 291.379 431.319 291.064 431.325 290.627C431.319 290.06 431.913 289.629 432.747 289.629C433.554 289.629 434.019 290.012 434.156 290.6Z" fill="#1D1D1F"/>
<rect width="480" height="60" transform="translate(30 313)" fill="white"/>
<path d="M47.7709 340H54.1284V339.125H49.1518V339.057L51.6127 336.404C53.3217 334.6 53.8276 333.766 53.8276 332.658C53.8276 331.141 52.5903 329.965 50.8745 329.965C49.1381 329.965 47.853 331.141 47.853 332.809H48.7827C48.7827 331.646 49.5961 330.819 50.8471 330.826C52.0229 330.819 52.9116 331.564 52.9252 332.658C52.9116 333.595 52.3852 334.278 51.1205 335.666L47.7709 339.289V340ZM59.4123 340.137C61.5177 340.137 62.7482 338.264 62.7482 335.051C62.7482 331.858 61.5041 329.965 59.4123 329.965C57.3136 329.965 56.0627 331.858 56.0627 335.051C56.0627 338.264 57.3 340.137 59.4123 340.137ZM57.0197 335.051C57.0128 332.371 57.9084 330.819 59.4123 330.826C60.9025 330.819 61.798 332.371 61.8048 335.051C61.798 337.73 60.9093 339.262 59.4123 339.262C57.9015 339.262 57.0128 337.73 57.0197 335.051ZM64.7372 340H71.0946V339.125H66.118V339.057L68.579 336.404C70.288 334.6 70.7938 333.766 70.7938 332.658C70.7938 331.141 69.5565 329.965 67.8407 329.965C66.1044 329.965 64.8192 331.141 64.8192 332.809H65.7489C65.7489 331.646 66.5624 330.819 67.8134 330.826C68.9891 330.819 69.8778 331.564 69.8915 332.658C69.8778 333.595 69.3514 334.278 68.0868 335.666L64.7372 339.289V340ZM73.2613 340H79.6187V339.125H74.6422V339.057L77.1031 336.404C78.8121 334.6 79.318 333.766 79.318 332.658C79.318 331.141 78.0807 329.965 76.3648 329.965C74.6285 329.965 73.3434 331.141 73.3434 332.809H74.273C74.273 331.646 75.0865 330.819 76.3375 330.826C77.5133 330.819 78.402 331.564 78.4156 332.658C78.402 333.595 77.8756 334.278 76.6109 335.666L73.2613 339.289V340ZM88.751 329.637H87.8897L84.7041 341.49H85.5655L88.751 329.637ZM94.0962 330.102V340H95.0122V332.111H95.0942L98.3755 340H99.2505L102.532 332.111H102.614V340H103.543V330.102H102.395L98.8677 338.605H98.7719L95.2309 330.102H94.0962ZM105.806 337.922C105.799 339.351 106.9 340.171 108.253 340.164C109.497 340.171 110.236 339.487 110.536 338.852H110.591V340H111.521V334.982C111.521 332.945 109.948 332.474 108.841 332.467C107.296 332.474 106.168 333.246 106.011 334.422H106.982C107.159 333.745 107.816 333.294 108.786 333.301C109.955 333.294 110.598 333.902 110.591 334.9V335.598C110.236 335.611 109.039 335.693 108.54 335.721C107.023 335.844 105.799 336.411 105.806 337.922ZM106.736 337.963C106.736 337.108 107.364 336.603 108.677 336.514C109.046 336.493 110.222 336.404 110.591 336.37V337.17C110.598 338.353 109.75 339.33 108.39 339.33C107.44 339.33 106.736 338.838 106.736 337.963ZM114.125 342.789C115.137 342.782 115.82 342.249 116.23 341.148L119.361 332.576H118.363L116.189 338.797H116.121L113.961 332.576H112.949L115.684 340.068L115.424 340.793C115.027 341.88 114.549 341.941 114.07 341.941C113.92 341.941 113.708 341.935 113.619 341.928L113.605 342.762C113.728 342.775 113.927 342.782 114.125 342.789ZM127.988 329.637H127.126L123.941 341.49H124.802L127.988 329.637ZM136.286 330.102H135.274L132.909 331.66V332.658L135.247 331.113H135.302V340H136.286V330.102ZM142.472 330.102H141.46L139.095 331.66V332.658L141.433 331.113H141.488V340H142.472V330.102ZM153.231 330.102H151.29L148.843 331.66V333.479L151.112 332.057H151.167V340H153.231V330.102ZM159.472 340.137C161.708 340.137 163.314 338.92 163.3 337.225C163.314 335.987 162.514 335.105 161.058 334.928V334.846C162.166 334.647 162.938 333.861 162.931 332.754C162.938 331.188 161.564 329.965 159.5 329.965C157.469 329.965 155.938 331.147 155.904 332.85H157.873C157.907 332.091 158.625 331.599 159.5 331.605C160.375 331.599 160.956 332.118 160.949 332.877C160.956 333.656 160.272 334.189 159.295 334.189H158.379V335.707H159.295C160.457 335.714 161.174 336.281 161.168 337.088C161.174 337.888 160.47 338.435 159.486 338.441C158.529 338.435 157.811 337.949 157.777 337.211H155.699C155.74 338.94 157.299 340.137 159.472 340.137ZM166.233 338.852C166.841 338.852 167.368 338.339 167.368 337.703C167.368 337.074 166.841 336.562 166.233 336.568C165.59 336.562 165.071 337.074 165.084 337.703C165.071 338.339 165.59 338.852 166.233 338.852ZM165.084 332.836C165.071 333.472 165.59 333.984 166.233 333.984C166.841 333.984 167.368 333.472 167.368 332.836C167.368 332.207 166.841 331.694 166.233 331.701C165.59 331.694 165.071 332.207 165.084 332.836ZM173.526 330.102H171.585L169.138 331.66V333.479L171.407 332.057H171.462V340H173.526V330.102ZM176.103 340H183.185V338.305H178.961V338.25L180.465 336.787C182.502 334.941 183.049 334.019 183.049 332.891C183.049 331.175 181.64 329.965 179.521 329.965C177.436 329.965 176.001 331.202 176.008 333.137H177.963C177.956 332.187 178.564 331.599 179.494 331.605C180.403 331.599 181.066 332.146 181.066 333.027C181.066 333.813 180.567 334.36 179.644 335.242L176.09 338.51L176.103 340ZM186.131 338.852C186.74 338.852 187.266 338.339 187.266 337.703C187.266 337.074 186.74 336.562 186.131 336.568C185.489 336.562 184.969 337.074 184.983 337.703C184.969 338.339 185.489 338.852 186.131 338.852ZM184.983 332.836C184.969 333.472 185.489 333.984 186.131 333.984C186.74 333.984 187.266 333.472 187.266 332.836C187.266 332.207 186.74 331.694 186.131 331.701C185.489 331.694 184.969 332.207 184.983 332.836ZM193.425 330.102H191.484L189.036 331.66V333.479L191.306 332.057H191.361V340H193.425V330.102ZM199.639 340.137C201.867 340.137 203.385 338.708 203.385 336.705C203.385 334.805 202.031 333.444 200.213 333.451C199.345 333.444 198.593 333.8 198.23 334.285H198.148L198.422 331.783H202.824V330.102H196.727L196.193 335.803H198.053C198.347 335.249 198.866 334.969 199.611 334.969C200.65 334.976 201.396 335.707 201.389 336.76C201.396 337.792 200.664 338.517 199.639 338.51C198.777 338.517 198.073 337.983 198.025 337.211H196.029C196.063 338.92 197.574 340.137 199.639 340.137Z" fill="#484848"/>
<line x1="234.5" y1="313" x2="234.5" y2="373" stroke="#D8D8D8"/>
<rect x="227.5" y="328.5" width="13" height="13" rx="6.5" fill="#65CBA0" stroke="#C6FFE7" stroke-width="3"/>
<line x1="234.5" y1="313" x2="234.5" y2="327" stroke="#D8D8D8"/>
<path d="M259.084 342H260.695V338.001H262.863H262.966L265.119 342H266.95L264.606 337.715C265.896 337.225 266.54 336.148 266.54 334.72C266.54 332.764 265.332 331.395 262.863 331.395H259.084V342ZM260.695 336.609V332.771H262.702C264.262 332.779 264.914 333.526 264.914 334.72C264.914 335.914 264.262 336.602 262.702 336.609H260.695ZM268.627 342H275.336V340.608H270.238V337.371H274.926V335.994H270.238V332.786H275.278V331.395H268.627V342ZM283.327 334.192H284.894C284.843 332.479 283.341 331.248 281.188 331.248C279.042 331.248 277.416 332.464 277.409 334.295C277.416 335.774 278.471 336.639 280.177 337.107L281.437 337.444C282.558 337.745 283.436 338.118 283.444 339.041C283.436 340.081 282.455 340.762 281.1 340.77C279.862 340.762 278.837 340.213 278.742 339.056H277.13C277.233 340.989 278.727 342.176 281.1 342.176C283.605 342.176 285.033 340.865 285.04 339.07C285.033 337.151 283.334 336.412 281.979 336.082L280.954 335.804C280.111 335.606 279.02 335.21 279.02 334.207C279.027 333.306 279.848 332.64 281.144 332.64C282.36 332.64 283.224 333.204 283.327 334.192ZM296.283 336.697C296.283 333.306 294.247 331.248 291.507 331.248C288.746 331.248 286.717 333.306 286.717 336.697C286.717 340.081 288.746 342.146 291.507 342.146C294.247 342.146 296.283 340.088 296.283 336.697ZM288.314 336.697C288.321 334.119 289.676 332.72 291.507 332.728C293.324 332.72 294.679 334.119 294.686 336.697C294.679 339.275 293.324 340.674 291.507 340.667C289.676 340.674 288.321 339.275 288.314 336.697ZM298.399 342H304.801V340.608H300.011V331.395H298.399V342ZM306.639 331.395H304.896L308.704 342H310.564L314.388 331.395H312.645L309.7 340.022H309.583L306.639 331.395ZM316.035 342H322.744V340.608H317.647V337.371H322.334V335.994H317.647V332.786H322.686V331.395H316.035V342ZM328.406 342C331.636 342 333.496 339.993 333.503 336.683C333.496 333.379 331.636 331.395 328.508 331.395H324.963V342H328.406ZM326.575 340.594V332.801H328.406C330.72 332.801 331.907 334.185 331.907 336.683C331.907 339.188 330.72 340.586 328.318 340.594H326.575ZM339.582 342H341.105V340.755H341.222C341.515 341.275 342.079 342.154 343.522 342.161C345.449 342.154 346.855 340.608 346.862 338.045C346.855 335.452 345.434 333.943 343.508 333.943C342.035 333.943 341.508 334.837 341.222 335.335H341.135V331.395H339.582V342ZM341.105 338.016C341.105 336.36 341.83 335.269 343.171 335.276C344.57 335.269 345.265 336.448 345.265 338.016C345.265 339.612 344.548 340.821 343.171 340.828C341.852 340.821 341.105 339.686 341.105 338.016ZM349.403 344.988C350.714 344.981 351.52 344.314 351.981 343.055L355.263 334.046H353.578L351.571 340.213H351.483L349.477 334.046H347.807L350.722 342.103L350.531 342.63C350.158 343.633 349.755 343.663 349.271 343.67C349.052 343.663 348.744 343.655 348.568 343.641V344.944C348.766 344.974 349.081 344.981 349.403 344.988Z" fill="#1D1D1F"/>
<path d="M360.799 342H362.367V337.093C362.367 336.023 363.114 335.291 363.993 335.291C364.85 335.291 365.443 335.855 365.443 336.727V342H366.996V336.932C366.996 335.979 367.574 335.291 368.578 335.291C369.398 335.291 370.072 335.738 370.072 336.814V342H371.639V336.668C371.632 334.844 370.614 333.943 369.178 333.943C368.028 333.943 367.164 334.493 366.79 335.35H366.703C366.366 334.463 365.626 333.943 364.564 333.943C363.517 333.943 362.733 334.463 362.396 335.35H362.308V334.046H360.799V342ZM373.653 342H380.054V340.652H375.777V340.579L379.908 335.174V334.046H373.799V335.394H377.96V335.467L373.653 340.931V342ZM387.21 340.564C388.272 340.564 388.741 339.839 388.924 339.466H388.997C389.107 340.14 389.817 340.623 390.769 340.623C392.329 340.63 393.479 339.327 393.479 337.078C393.487 333.899 391.106 331.526 387.635 331.526C384.2 331.526 381.768 334.053 381.775 337.518C381.775 341.209 383.95 343.523 387.576 343.523C388.543 343.523 389.429 343.392 390.198 343.172V342C389.341 342.234 388.609 342.315 387.576 342.322C384.58 342.344 383.006 340.425 383.006 337.518C383.013 334.844 384.815 332.735 387.635 332.728C390.367 332.728 392.263 334.471 392.249 337.122C392.242 338.543 391.7 339.502 390.872 339.495C390.432 339.502 390.22 339.239 390.198 338.704V334.603H388.924V335.481H388.85C388.667 335.115 388.221 334.485 387.21 334.485C385.833 334.485 384.742 335.591 384.734 337.518C384.742 339.437 385.796 340.564 387.21 340.564ZM386.111 337.503C386.104 336.47 386.609 335.694 387.532 335.687C388.47 335.694 388.946 336.412 388.953 337.503C388.946 338.624 388.462 339.356 387.532 339.363C386.617 339.356 386.104 338.565 386.111 337.503ZM395.464 342H397.031V337.093C397.031 336.023 397.778 335.291 398.657 335.291C399.514 335.291 400.107 335.855 400.107 336.727V342H401.66V336.932C401.66 335.979 402.239 335.291 403.242 335.291C404.062 335.291 404.736 335.738 404.736 336.814V342H406.304V336.668C406.296 334.844 405.278 333.943 403.843 333.943C402.693 333.943 401.829 334.493 401.455 335.35H401.367C401.03 334.463 400.291 333.943 399.229 333.943C398.181 333.943 397.397 334.463 397.061 335.35H396.973V334.046H395.464V342ZM408.318 342H414.719V340.652H410.442V340.579L414.572 335.174V334.046H408.464V335.394H412.624V335.467L408.318 340.931V342ZM417.685 342.103C418.249 342.095 418.718 341.634 418.725 341.062C418.718 340.491 418.249 340.022 417.685 340.022C417.114 340.022 416.638 340.491 416.645 341.062C416.638 341.634 417.114 342.095 417.685 342.103ZM424.284 342.161C426.159 342.161 427.382 341.026 427.55 339.48H426.027C425.829 340.337 425.17 340.835 424.284 340.828C422.973 340.835 422.13 339.759 422.13 338.016C422.13 336.324 422.995 335.254 424.284 335.247C425.273 335.254 425.866 335.877 426.027 336.624H427.55C427.382 335.013 426.071 333.943 424.254 333.943C422.013 333.943 420.556 335.635 420.563 338.06C420.556 340.455 421.962 342.161 424.284 342.161ZM432.699 342.161C434.94 342.161 436.405 340.521 436.405 338.06C436.405 335.584 434.94 333.943 432.699 333.943C430.443 333.943 428.971 335.584 428.978 338.06C428.971 340.521 430.443 342.161 432.699 342.161ZM430.546 338.06C430.546 336.536 431.242 335.24 432.699 335.232C434.135 335.24 434.823 336.536 434.823 338.06C434.823 339.576 434.135 340.857 432.699 340.857C431.242 340.857 430.546 339.576 430.546 338.06ZM439.269 342.103C439.833 342.095 440.301 341.634 440.309 341.062C440.301 340.491 439.833 340.022 439.269 340.022C438.697 340.022 438.221 340.491 438.229 341.062C438.221 341.634 438.697 342.095 439.269 342.103ZM442.498 342H444.066V339.173L444.82 338.426L447.523 342H449.442L446.007 337.459L449.222 334.046H447.347L444.197 337.4H444.066V331.395H442.498V342ZM450.752 342H452.32V337.151C452.32 336.111 453.125 335.357 454.209 335.364C454.532 335.357 454.898 335.423 455.03 335.452V333.958C454.869 333.943 454.561 333.921 454.371 333.929C453.44 333.921 452.642 334.456 452.349 335.306H452.261V334.046H450.752V342Z" fill="#003566"/>
</g>
</g>
<g filter="url(#filter1_d_2815_202131)">
<rect x="248" y="192" width="216" height="40" rx="6" fill="white"/>
<path d="M259.176 217.5H260.146V213.754H262.43C264.549 213.754 265.636 212.414 265.629 210.678C265.636 208.935 264.549 207.602 262.416 207.602H259.176V217.5ZM260.146 212.879V208.477H262.375C263.934 208.47 264.672 209.399 264.672 210.678C264.672 211.942 263.934 212.886 262.389 212.879H260.146ZM267.423 217.5H273.781V216.625H268.804V216.557L271.265 213.904C272.974 212.1 273.48 211.266 273.48 210.158C273.48 208.641 272.243 207.465 270.527 207.465C268.79 207.465 267.505 208.641 267.505 210.309H268.435C268.435 209.146 269.248 208.319 270.499 208.326C271.675 208.319 272.564 209.064 272.578 210.158C272.564 211.095 272.037 211.778 270.773 213.166L267.423 216.789V217.5ZM279.365 217.5H280.295V210.076H279.365V217.5ZM279.16 208.162C279.16 208.524 279.468 208.812 279.844 208.805C280.213 208.812 280.521 208.524 280.527 208.162C280.521 207.8 280.213 207.513 279.844 207.506C279.468 207.513 279.16 207.8 279.16 208.162ZM283.388 212.893C283.381 211.607 284.215 210.821 285.371 210.828C286.492 210.821 287.203 211.573 287.203 212.77V217.5H288.132V212.701C288.132 210.931 287.121 209.98 285.617 209.98C284.523 209.98 283.785 210.479 283.429 211.252H283.347V210.076H282.445V217.5H283.388V212.893ZM293.208 217.65C294.773 217.657 295.867 216.666 296.065 215.326H295.122C294.924 216.242 294.172 216.81 293.208 216.816C291.772 216.81 290.829 215.579 290.829 213.795C290.829 212.018 291.8 210.808 293.208 210.814C294.247 210.808 294.937 211.484 295.122 212.291H296.052C295.86 210.91 294.698 209.974 293.194 209.967C291.225 209.974 289.892 211.58 289.899 213.822C289.892 216.037 291.191 217.657 293.208 217.65ZM297.778 217.5H298.707V210.076H297.778V217.5ZM297.572 208.162C297.572 208.524 297.88 208.812 298.256 208.805C298.625 208.812 298.933 208.524 298.94 208.162C298.933 207.8 298.625 207.513 298.256 207.506C297.88 207.513 297.572 207.8 297.572 208.162ZM303.55 217.65C304.911 217.657 305.519 216.803 305.82 216.16H305.916V217.5H306.832V207.602H305.888V211.457H305.82C305.526 210.821 304.938 209.974 303.564 209.967C301.739 209.974 300.481 211.505 300.488 213.809C300.481 216.119 301.732 217.657 303.55 217.65ZM301.431 213.795C301.424 212.106 302.21 210.814 303.673 210.814C305.109 210.814 305.916 212.038 305.916 213.795C305.916 215.552 305.095 216.81 303.673 216.816C302.224 216.81 301.424 215.49 301.431 213.795ZM312.181 217.65C313.678 217.657 314.73 216.844 315.065 215.818H314.067C313.801 216.29 313.199 216.816 312.181 216.816C310.704 216.816 309.747 215.75 309.706 214.068H315.216V213.631C315.209 211.108 313.657 209.974 312.044 209.967C310.109 209.974 308.769 211.58 308.776 213.836C308.769 216.092 310.082 217.657 312.181 217.65ZM309.713 213.262C309.795 211.929 310.718 210.808 312.057 210.814C313.356 210.808 314.259 211.874 314.259 213.262H309.713ZM317.912 212.893C317.906 211.607 318.739 210.821 319.895 210.828C321.016 210.821 321.727 211.573 321.727 212.77V217.5H322.656V212.701C322.656 210.931 321.645 209.98 320.141 209.98C319.047 209.98 318.309 210.479 317.953 211.252H317.871V210.076H316.969V217.5H317.912V212.893ZM327.787 210.076H326.228V208.299H325.285V210.076H324.177V210.869H325.285V215.75C325.285 216.98 326.262 217.609 327.226 217.609C327.541 217.609 327.773 217.582 327.923 217.568V216.693L327.308 216.721C326.748 216.714 326.221 216.454 326.228 215.518V210.869H327.787V210.076ZM334.807 207.602H333.03V217.5H334.807V207.602ZM344.927 207.602H343.164V214.369H343.068L338.406 207.602H336.793V217.5H338.57V210.732H338.652L343.341 217.5H344.927V207.602ZM350.362 217.5H352.139V214.15H354.053C356.336 214.15 357.56 212.776 357.567 210.883C357.56 208.982 356.35 207.602 354.08 207.602H350.362V217.5ZM352.139 212.688V209.092H353.807C355.147 209.092 355.748 209.823 355.748 210.883C355.748 211.929 355.147 212.681 353.807 212.688H352.139ZM359.142 217.5H360.92V213.877H362.779L364.72 217.5H366.703L364.563 213.576C365.725 213.104 366.341 212.106 366.347 210.76C366.341 208.873 365.131 207.602 362.861 207.602H359.142V217.5ZM360.92 212.387V209.092H362.588C363.927 209.092 364.529 209.707 364.529 210.76C364.529 211.819 363.927 212.394 362.588 212.387H360.92ZM376.851 212.551C376.858 209.352 374.902 207.465 372.312 207.465C369.707 207.465 367.766 209.352 367.773 212.551C367.766 215.743 369.707 217.637 372.312 217.637C374.902 217.637 376.858 215.75 376.851 212.551ZM369.564 212.551C369.557 210.288 370.698 209.064 372.312 209.064C373.932 209.064 375.067 210.288 375.06 212.551C375.067 214.813 373.932 216.037 372.312 216.037C370.698 216.037 369.557 214.813 369.564 212.551ZM385.207 210.76H387.026C386.725 208.818 385.037 207.465 382.856 207.465C380.265 207.465 378.324 209.372 378.331 212.551C378.324 215.688 380.176 217.637 382.911 217.637C385.358 217.637 387.108 216.058 387.108 213.508V212.318H383.088V213.727H385.385C385.358 215.135 384.408 216.037 382.911 216.037C381.256 216.037 380.115 214.786 380.122 212.537C380.115 210.309 381.277 209.064 382.87 209.064C384.073 209.064 384.886 209.707 385.207 210.76ZM388.861 217.5H390.639V213.877H392.498L394.439 217.5H396.422L394.282 213.576C395.444 213.104 396.059 212.106 396.066 210.76C396.059 208.873 394.849 207.602 392.58 207.602H388.861V217.5ZM390.639 212.387V209.092H392.306C393.646 209.092 394.248 209.707 394.248 210.76C394.248 211.819 393.646 212.394 392.306 212.387H390.639ZM397.738 217.5H404.204V215.996H399.515V213.289H403.835V211.799H399.515V209.092H404.177V207.602H397.738V217.5ZM411.413 210.322H413.122C413.094 208.647 411.666 207.465 409.567 207.465C407.482 207.465 405.93 208.627 405.93 210.377C405.93 211.799 406.942 212.619 408.569 213.043L409.69 213.33C410.763 213.604 411.474 213.932 411.481 214.711C411.474 215.559 410.668 216.126 409.499 216.133C408.371 216.126 407.503 215.62 407.42 214.588H405.67C405.746 216.543 407.209 217.65 409.512 217.65C411.884 217.65 413.258 216.461 413.258 214.725C413.258 213.002 411.836 212.223 410.36 211.881L409.43 211.635C408.61 211.443 407.728 211.102 407.735 210.268C407.742 209.522 408.412 208.976 409.54 208.982C410.606 208.976 411.324 209.468 411.413 210.322ZM420.262 210.322H421.971C421.943 208.647 420.515 207.465 418.416 207.465C416.331 207.465 414.779 208.627 414.779 210.377C414.779 211.799 415.791 212.619 417.418 213.043L418.539 213.33C419.612 213.604 420.323 213.932 420.33 214.711C420.323 215.559 419.517 216.126 418.348 216.133C417.22 216.126 416.351 215.62 416.269 214.588H414.519C414.595 216.543 416.058 217.65 418.361 217.65C420.733 217.65 422.107 216.461 422.107 214.725C422.107 213.002 420.685 212.223 419.209 211.881L418.279 211.635C417.459 211.443 416.577 211.102 416.584 210.268C416.591 209.522 417.261 208.976 418.389 208.982C419.455 208.976 420.173 209.468 420.262 210.322Z" fill="#1D1D1F"/>
</g>
<circle opacity="0.8" cx="455" cy="212" r="24" fill="#8C81D1"/>
<path fill-rule="evenodd" clip-rule="evenodd" d="M463.883 207.047C463.765 207.271 463.772 207.538 463.882 207.766C464.022 208.056 464.141 208.354 464.239 208.66C464.316 208.9 464.493 209.096 464.731 209.179L467.62 210.184C467.922 210.289 468.124 210.573 468.124 210.893V213.107C468.124 213.427 467.922 213.711 467.62 213.816L464.762 214.81C464.507 214.899 464.324 215.117 464.255 215.378C464.162 215.728 464.037 216.069 463.882 216.396C463.773 216.626 463.766 216.894 463.883 217.119L465.243 219.715C465.395 220.005 465.341 220.361 465.109 220.593L463.592 222.11C463.36 222.342 463.004 222.396 462.714 222.244L460.01 220.828C459.847 220.742 459.657 220.717 459.483 220.775C459.263 220.848 459.059 220.936 458.854 221.023C458.686 221.096 458.517 221.168 458.339 221.232C458.102 221.318 457.902 221.496 457.819 221.734L456.815 224.621C456.71 224.923 456.426 225.125 456.106 225.125H453.892C453.572 225.125 453.288 224.923 453.183 224.621L452.189 221.763C452.1 221.508 451.882 221.325 451.622 221.256C451.271 221.163 450.93 221.038 450.603 220.883C450.373 220.774 450.105 220.766 449.88 220.884L447.284 222.244C446.994 222.396 446.638 222.342 446.406 222.11L444.889 220.593C444.657 220.361 444.603 220.005 444.755 219.715L446.171 217.011C446.257 216.848 446.282 216.658 446.224 216.484C446.151 216.264 446.063 216.06 445.976 215.855C445.903 215.687 445.831 215.518 445.767 215.34C445.681 215.103 445.503 214.903 445.265 214.82L442.378 213.816C442.076 213.711 441.874 213.427 441.874 213.107V210.893C441.874 210.573 442.076 210.289 442.378 210.184L445.267 209.179C445.505 209.096 445.682 208.9 445.759 208.66C445.857 208.354 445.976 208.056 446.116 207.766C446.227 207.538 446.233 207.271 446.115 207.047L444.755 204.449C444.603 204.159 444.657 203.803 444.889 203.571L446.57 201.89C446.802 201.658 447.158 201.604 447.448 201.756L450.046 203.116C450.27 203.234 450.537 203.227 450.765 203.117C451.055 202.977 451.353 202.858 451.659 202.76C451.899 202.683 452.096 202.506 452.178 202.268L453.183 199.379C453.288 199.077 453.572 198.875 453.892 198.875H456.099C456.422 198.875 456.709 199.082 456.811 199.388L457.812 202.394C457.899 202.652 458.119 202.84 458.383 202.91C458.731 203.002 459.07 203.127 459.395 203.281C459.625 203.39 459.893 203.398 460.118 203.28L462.714 201.92C463.004 201.768 463.36 201.822 463.592 202.054L465.109 203.571C465.341 203.803 465.395 204.159 465.243 204.449L463.883 207.047ZM454.998 216.74C457.616 216.74 459.738 214.618 459.738 212C459.738 209.382 457.616 207.26 454.998 207.26C452.38 207.26 450.258 209.382 450.258 212C450.258 214.618 452.38 216.74 454.998 216.74Z" fill="white"/>
<path d="M362.116 258.884C362.604 259.372 363.396 259.372 363.884 258.884L371.839 250.929C372.327 250.441 372.327 249.649 371.839 249.161C371.351 248.673 370.559 248.673 370.071 249.161L363 256.232L355.929 249.161C355.441 248.673 354.649 248.673 354.161 249.161C353.673 249.649 353.673 250.441 354.161 250.929L362.116 258.884ZM361.75 242L361.75 258L364.25 258L364.25 242L361.75 242Z" fill="#6638B6"/>
<path d="M362.116 180.884C362.604 181.372 363.396 181.372 363.884 180.884L371.839 172.929C372.327 172.441 372.327 171.649 371.839 171.161C371.351 170.673 370.559 170.673 370.071 171.161L363 178.232L355.929 171.161C355.441 170.673 354.649 170.673 354.161 171.161C353.673 171.649 353.673 172.441 354.161 172.929L362.116 180.884ZM361.75 164L361.75 180L364.25 180L364.25 164L361.75 164Z" fill="#6638B6"/>
<mask id="mask1_2815_202131" style="mask-type:alpha" maskUnits="userSpaceOnUse" x="0" y="0" width="540" height="176">
<rect width="540" height="176" fill="#C4C4C4"/>
</mask>
<g mask="url(#mask1_2815_202131)">
<g filter="url(#filter2_d_2815_202131)">
<rect width="480" height="154" transform="translate(30)" fill="white"/>
<path d="M47.7885 27H54.1459V26.125H49.1694V26.0566L51.6303 23.4043C53.3393 21.5996 53.8452 20.7656 53.8452 19.6582C53.8452 18.1406 52.6078 16.9648 50.892 16.9648C49.1557 16.9648 47.8705 18.1406 47.8705 19.8086H48.8002C48.8002 18.6465 49.6137 17.8193 50.8647 17.8262C52.0405 17.8193 52.9291 18.5645 52.9428 19.6582C52.9291 20.5947 52.4028 21.2783 51.1381 22.666L47.7885 26.2891V27ZM59.4298 27.1367C61.5353 27.1367 62.7658 25.2637 62.7658 22.0508C62.7658 18.8584 61.5216 16.9648 59.4298 16.9648C57.3312 16.9648 56.0802 18.8584 56.0802 22.0508C56.0802 25.2637 57.3175 27.1367 59.4298 27.1367ZM57.0373 22.0508C57.0304 19.3711 57.9259 17.8193 59.4298 17.8262C60.9201 17.8193 61.8156 19.3711 61.8224 22.0508C61.8156 24.7305 60.9269 26.2617 59.4298 26.2617C57.9191 26.2617 57.0304 24.7305 57.0373 22.0508ZM64.7548 27H71.1122V26.125H66.1356V26.0566L68.5966 23.4043C70.3055 21.5996 70.8114 20.7656 70.8114 19.6582C70.8114 18.1406 69.5741 16.9648 67.8583 16.9648C66.122 16.9648 64.8368 18.1406 64.8368 19.8086H65.7665C65.7665 18.6465 66.58 17.8193 67.8309 17.8262C69.0067 17.8193 69.8954 18.5645 69.9091 19.6582C69.8954 20.5947 69.369 21.2783 68.1044 22.666L64.7548 26.2891V27ZM73.2789 27H79.6363V26.125H74.6598V26.0566L77.1207 23.4043C78.8297 21.5996 79.3355 20.7656 79.3355 19.6582C79.3355 18.1406 78.0982 16.9648 76.3824 16.9648C74.6461 16.9648 73.3609 18.1406 73.3609 19.8086H74.2906C74.2906 18.6465 75.1041 17.8193 76.3551 17.8262C77.5309 17.8193 78.4195 18.5645 78.4332 19.6582C78.4195 20.5947 77.8932 21.2783 76.6285 22.666L73.2789 26.2891V27ZM88.7686 16.6367H87.9073L84.7217 28.4902H85.583L88.7686 16.6367ZM94.1137 17.1016V27H95.0298V19.1113H95.1118L98.393 27H99.268L102.549 19.1113H102.631V27H103.561V17.1016H102.413L98.8852 25.6055H98.7895L95.2485 17.1016H94.1137ZM105.823 24.9219C105.817 26.3506 106.917 27.1709 108.271 27.1641C109.515 27.1709 110.253 26.4873 110.554 25.8516H110.609V27H111.538V21.9824C111.538 19.9453 109.966 19.4736 108.859 19.4668C107.314 19.4736 106.186 20.2461 106.029 21.4219H106.999C107.177 20.7451 107.833 20.2939 108.804 20.3008C109.973 20.2939 110.615 20.9023 110.609 21.9004V22.5977C110.253 22.6113 109.057 22.6934 108.558 22.7207C107.04 22.8438 105.817 23.4111 105.823 24.9219ZM106.753 24.9629C106.753 24.1084 107.382 23.6025 108.695 23.5137C109.064 23.4932 110.239 23.4043 110.609 23.3701V24.1699C110.615 25.3525 109.768 26.3301 108.407 26.3301C107.457 26.3301 106.753 25.8379 106.753 24.9629ZM114.142 29.7891C115.154 29.7822 115.838 29.249 116.248 28.1484L119.379 19.5762H118.381L116.207 25.7969H116.139L113.978 19.5762H112.967L115.701 27.0684L115.441 27.793C115.045 28.8799 114.566 28.9414 114.088 28.9414C113.937 28.9414 113.726 28.9346 113.637 28.9277L113.623 29.7617C113.746 29.7754 113.944 29.7822 114.142 29.7891ZM128.005 16.6367H127.144L123.958 28.4902H124.82L128.005 16.6367ZM136.304 17.1016H135.292L132.927 18.6602V19.6582L135.264 18.1133H135.319V27H136.304V17.1016ZM142.49 17.1016H141.478L139.113 18.6602V19.6582L141.451 18.1133H141.505V27H142.49V17.1016ZM153.249 17.1016H151.308L148.86 18.6602V20.4785L151.13 19.0566H151.185V27H153.249V17.1016ZM155.826 27H162.908V25.3047H158.683V25.25L160.187 23.7871C162.224 21.9414 162.771 21.0186 162.771 19.8906C162.771 18.1748 161.363 16.9648 159.244 16.9648C157.159 16.9648 155.723 18.2021 155.73 20.1367H157.685C157.678 19.1865 158.287 18.5986 159.216 18.6055C160.126 18.5986 160.789 19.1455 160.789 20.0273C160.789 20.8135 160.29 21.3604 159.367 22.2422L155.812 25.5098L155.826 27ZM165.854 25.8516C166.462 25.8516 166.989 25.3389 166.989 24.7031C166.989 24.0742 166.462 23.5615 165.854 23.5684C165.211 23.5615 164.692 24.0742 164.705 24.7031C164.692 25.3389 165.211 25.8516 165.854 25.8516ZM164.705 19.8359C164.692 20.4717 165.211 20.9844 165.854 20.9844C166.462 20.9844 166.989 20.4717 166.989 19.8359C166.989 19.207 166.462 18.6943 165.854 18.7012C165.211 18.6943 164.692 19.207 164.705 19.8359ZM172.546 27.1367C174.781 27.1367 176.388 25.9199 176.374 24.2246C176.388 22.9873 175.588 22.1055 174.132 21.9277V21.8457C175.239 21.6475 176.012 20.8613 176.005 19.7539C176.012 18.1885 174.638 16.9648 172.573 16.9648C170.543 16.9648 169.012 18.1475 168.978 19.8496H170.946C170.981 19.0908 171.698 18.5986 172.573 18.6055C173.448 18.5986 174.029 19.1182 174.023 19.877C174.029 20.6562 173.346 21.1895 172.368 21.1895H171.452V22.707H172.368C173.53 22.7139 174.248 23.2812 174.241 24.0879C174.248 24.8877 173.544 25.4346 172.56 25.4414C171.603 25.4346 170.885 24.9492 170.851 24.2109H168.773C168.814 25.9404 170.372 27.1367 172.546 27.1367ZM178.103 27H185.185V25.3047H180.961V25.25L182.465 23.7871C184.502 21.9414 185.049 21.0186 185.049 19.8906C185.049 18.1748 183.64 16.9648 181.521 16.9648C179.436 16.9648 178.001 18.2021 178.008 20.1367H179.963C179.956 19.1865 180.564 18.5986 181.494 18.6055C182.403 18.5986 183.066 19.1455 183.066 20.0273C183.066 20.8135 182.567 21.3604 181.644 22.2422L178.09 25.5098L178.103 27ZM188.131 25.8516C188.74 25.8516 189.266 25.3389 189.266 24.7031C189.266 24.0742 188.74 23.5615 188.131 23.5684C187.489 23.5615 186.969 24.0742 186.983 24.7031C186.969 25.3389 187.489 25.8516 188.131 25.8516ZM186.983 19.8359C186.969 20.4717 187.489 20.9844 188.131 20.9844C188.74 20.9844 189.266 20.4717 189.266 19.8359C189.266 19.207 188.74 18.6943 188.131 18.7012C187.489 18.6943 186.969 19.207 186.983 19.8359ZM195.425 17.1016H193.484L191.036 18.6602V20.4785L193.306 19.0566H193.361V27H195.425V17.1016ZM201.639 27.1367C203.867 27.1367 205.385 25.708 205.385 23.7051C205.385 21.8047 204.031 20.4443 202.213 20.4512C201.345 20.4443 200.593 20.7998 200.23 21.2852H200.148L200.422 18.7832H204.824V17.1016H198.727L198.193 22.8027H200.053C200.347 22.249 200.866 21.9688 201.611 21.9688C202.65 21.9756 203.396 22.707 203.389 23.7598C203.396 24.792 202.664 25.5166 201.639 25.5098C200.777 25.5166 200.073 24.9834 200.025 24.2109H198.029C198.063 25.9199 199.574 27.1367 201.639 27.1367Z" fill="#484848"/>
<line x1="234.5" y1="-2.18557e-08" x2="234.5" y2="45" stroke="#D8D8D8"/>
<rect x="227.5" y="15.5" width="13" height="13" rx="6.5" fill="#FF6A6A" stroke="#FFC3C3" stroke-width="3"/>
<line x1="234.5" y1="-2.18557e-08" x2="234.5" y2="14" stroke="#D8D8D8"/>
<path d="M258.52 19.4004H261.609V28H263.113V19.4004H266.189V18.1016H258.52V19.4004ZM267.098 28H268.561V23.4746C268.561 22.5039 269.313 21.7998 270.325 21.8066C270.626 21.7998 270.967 21.8613 271.091 21.8887V20.4941C270.94 20.4805 270.653 20.46 270.475 20.4668C269.607 20.46 268.862 20.959 268.589 21.752H268.507V20.5762H267.098V28ZM272.464 28H273.927V20.5762H272.464V28ZM272.273 18.5664C272.28 19.0449 272.697 19.4346 273.203 19.4277C273.702 19.4346 274.119 19.0449 274.119 18.5664C274.119 18.0879 273.702 17.7051 273.203 17.7051C272.697 17.7051 272.28 18.0879 272.273 18.5664ZM279.102 30.9395C281.016 30.9395 282.458 30.0713 282.451 28.1641V20.5762H281.029V21.7793H280.934C280.66 21.3145 280.154 20.4805 278.774 20.4805C276.989 20.4805 275.656 21.8408 275.656 24.2129C275.656 26.585 277.01 27.8906 278.76 27.8906C280.127 27.8906 280.66 27.125 280.92 26.6465H281.016V28.1094C281.009 29.2646 280.278 29.7705 279.115 29.7637C278.152 29.7705 277.495 29.4287 277.352 28.7246H275.861C275.991 30.1123 277.229 30.9395 279.102 30.9395ZM277.147 24.2402C277.14 22.8184 277.796 21.7178 279.088 21.7246C280.346 21.7178 281.029 22.7363 281.029 24.2402C281.029 25.7715 280.332 26.6807 279.088 26.6875C277.81 26.6807 277.14 25.6963 277.147 24.2402ZM287.626 30.9395C289.54 30.9395 290.982 30.0713 290.975 28.1641V20.5762H289.554V21.7793H289.458C289.184 21.3145 288.679 20.4805 287.298 20.4805C285.514 20.4805 284.181 21.8408 284.181 24.2129C284.181 26.585 285.534 27.8906 287.284 27.8906C288.651 27.8906 289.184 27.125 289.444 26.6465H289.54V28.1094C289.533 29.2646 288.802 29.7705 287.64 29.7637C286.676 29.7705 286.019 29.4287 285.876 28.7246H284.386C284.516 30.1123 285.753 30.9395 287.626 30.9395ZM285.671 24.2402C285.664 22.8184 286.32 21.7178 287.612 21.7246C288.87 21.7178 289.554 22.7363 289.554 24.2402C289.554 25.7715 288.856 26.6807 287.612 26.6875C286.334 26.6807 285.664 25.6963 285.671 24.2402ZM296.232 28.1504C297.866 28.1504 299.007 27.3438 299.336 26.1406H297.859C297.613 26.5918 297.073 26.9473 296.246 26.9473C295.029 26.9473 294.195 26.1475 294.154 24.7324H299.431V24.2129C299.431 21.5264 297.825 20.4805 296.136 20.4805C294.065 20.4805 292.698 22.0527 292.705 24.3359C292.698 26.6396 294.045 28.1504 296.232 28.1504ZM294.161 23.6387C294.222 22.5928 294.981 21.6768 296.15 21.6836C297.264 21.6768 297.996 22.5107 297.996 23.6387H294.161ZM301.16 28H302.623V23.4746C302.623 22.5039 303.375 21.7998 304.387 21.8066C304.688 21.7998 305.03 21.8613 305.153 21.8887V20.4941C305.002 20.4805 304.715 20.46 304.537 20.4668C303.669 20.46 302.924 20.959 302.651 21.752H302.569V20.5762H301.16V28ZM309.48 28.1504C311.113 28.1504 312.255 27.3438 312.583 26.1406H311.106C310.86 26.5918 310.32 26.9473 309.493 26.9473C308.276 26.9473 307.442 26.1475 307.401 24.7324H312.679V24.2129C312.679 21.5264 311.072 20.4805 309.384 20.4805C307.313 20.4805 305.945 22.0527 305.952 24.3359C305.945 26.6396 307.292 28.1504 309.48 28.1504ZM307.408 23.6387C307.47 22.5928 308.229 21.6768 309.397 21.6836C310.512 21.6768 311.243 22.5107 311.243 23.6387H307.408ZM317.183 28.1504C318.537 28.1436 319.07 27.3232 319.344 26.8379H319.453V28H320.875V18.1016H319.412V21.7793H319.344C319.077 21.3145 318.578 20.4805 317.197 20.4805C315.413 20.4805 314.08 21.8887 314.08 24.3086C314.08 26.7012 315.392 28.1436 317.183 28.1504ZM315.57 24.2812C315.563 22.8184 316.219 21.7178 317.511 21.7246C318.769 21.7178 319.453 22.7363 319.453 24.2812C319.453 25.8398 318.756 26.8994 317.511 26.9062C316.233 26.8994 315.563 25.7715 315.57 24.2812Z" fill="#EF3817"/>
<path d="M326.876 28H328.298V26.8379H328.407C328.681 27.3232 329.207 28.1436 330.554 28.1504C332.352 28.1436 333.664 26.7012 333.671 24.3086C333.664 21.8887 332.338 20.4805 330.54 20.4805C329.166 20.4805 328.674 21.3145 328.407 21.7793H328.325V18.1016H326.876V28ZM328.298 24.2812C328.298 22.7363 328.975 21.7178 330.226 21.7246C331.531 21.7178 332.181 22.8184 332.181 24.2812C332.181 25.7715 331.511 26.8994 330.226 26.9062C328.995 26.8994 328.298 25.8398 328.298 24.2812ZM336.043 30.7891C337.267 30.7822 338.018 30.1602 338.449 28.9844L341.512 20.5762H339.939L338.066 26.332H337.984L336.111 20.5762H334.553L337.273 28.0957L337.096 28.5879C336.747 29.5244 336.371 29.5518 335.92 29.5586C335.715 29.5518 335.428 29.5449 335.264 29.5312V30.748C335.448 30.7754 335.742 30.7822 336.043 30.7891Z" fill="#1D1D1F"/>
<path d="M348.279 28H349.783L351.273 22.6543H351.382L352.886 28H354.376L356.55 20.5762H355.046L353.611 25.9902H353.529L352.093 20.5762H350.589L349.14 26.0176H349.058L347.609 20.5762H346.105L348.279 28ZM361 28.1504C362.634 28.1504 363.775 27.3438 364.104 26.1406H362.627C362.381 26.5918 361.841 26.9473 361.014 26.9473C359.797 26.9473 358.963 26.1475 358.922 24.7324H364.199V24.2129C364.199 21.5264 362.593 20.4805 360.904 20.4805C358.833 20.4805 357.466 22.0527 357.473 24.3359C357.466 26.6396 358.813 28.1504 361 28.1504ZM358.929 23.6387C358.99 22.5928 359.749 21.6768 360.918 21.6836C362.032 21.6768 362.764 22.5107 362.764 23.6387H358.929ZM366.052 28H367.473V26.8379H367.583C367.856 27.3232 368.383 28.1436 369.729 28.1504C371.527 28.1436 372.84 26.7012 372.846 24.3086C372.84 21.8887 371.513 20.4805 369.716 20.4805C368.342 20.4805 367.849 21.3145 367.583 21.7793H367.501V18.1016H366.052V28ZM367.473 24.2812C367.473 22.7363 368.15 21.7178 369.401 21.7246C370.707 21.7178 371.356 22.8184 371.356 24.2812C371.356 25.7715 370.686 26.8994 369.401 26.9062C368.171 26.8994 367.473 25.8398 367.473 24.2812ZM376.039 23.5977C376.039 22.415 376.784 21.7383 377.816 21.7383C378.8 21.7383 379.388 22.3672 379.388 23.4609V28H380.851V23.2832C380.851 21.4238 379.833 20.4805 378.308 20.4805C377.153 20.4805 376.456 20.9863 376.107 21.793H376.011V18.1016H374.576V28H376.039V23.5977ZM386.039 28.1504C388.131 28.1504 389.498 26.6191 389.498 24.3223C389.498 22.0117 388.131 20.4805 386.039 20.4805C383.934 20.4805 382.56 22.0117 382.567 24.3223C382.56 26.6191 383.934 28.1504 386.039 28.1504ZM384.03 24.3223C384.03 22.9004 384.679 21.6904 386.039 21.6836C387.379 21.6904 388.022 22.9004 388.022 24.3223C388.022 25.7373 387.379 26.9336 386.039 26.9336C384.679 26.9336 384.03 25.7373 384.03 24.3223ZM394.358 28.1504C396.45 28.1504 397.817 26.6191 397.817 24.3223C397.817 22.0117 396.45 20.4805 394.358 20.4805C392.253 20.4805 390.879 22.0117 390.886 24.3223C390.879 26.6191 392.253 28.1504 394.358 28.1504ZM392.349 24.3223C392.349 22.9004 392.998 21.6904 394.358 21.6836C395.698 21.6904 396.341 22.9004 396.341 24.3223C396.341 25.7373 395.698 26.9336 394.358 26.9336C392.998 26.9336 392.349 25.7373 392.349 24.3223ZM399.533 28H400.996V25.3613L401.7 24.6641L404.222 28H406.013L402.807 23.7617L405.808 20.5762H404.058L401.119 23.707H400.996V18.1016H399.533V28ZM414.407 20.5762H412.89V18.7988H411.441V20.5762H410.347V21.7383H411.441V26.1133C411.427 27.4668 412.459 28.0957 413.601 28.0957C414.004 28.0957 414.318 28.0684 414.517 28.041V26.7695C414.312 26.79 413.99 26.8105 413.778 26.8105C413.307 26.8037 412.897 26.6533 412.89 25.8125V21.7383H414.407V20.5762ZM416.109 28H417.572V20.5762H416.109V28ZM415.918 18.5664C415.925 19.0449 416.342 19.4346 416.848 19.4277C417.347 19.4346 417.764 19.0449 417.764 18.5664C417.764 18.0879 417.347 17.7051 416.848 17.7051C416.342 17.7051 415.925 18.0879 415.918 18.5664ZM423.102 20.5762H421.585V18.7988H420.135V20.5762H419.042V21.7383H420.135V26.1133C420.122 27.4668 421.154 28.0957 422.295 28.0957C422.699 28.0957 423.013 28.0684 423.211 28.041V26.7695C423.006 26.79 422.685 26.8105 422.473 26.8105C422.002 26.8037 421.591 26.6533 421.585 25.8125V21.7383H423.102V20.5762ZM426.431 18.1016H424.968V28H426.431V18.1016ZM431.688 28.1504C433.321 28.1504 434.463 27.3438 434.791 26.1406H433.314C433.068 26.5918 432.528 26.9473 431.701 26.9473C430.484 26.9473 429.65 26.1475 429.609 24.7324H434.887V24.2129C434.887 21.5264 433.28 20.4805 431.592 20.4805C429.521 20.4805 428.153 22.0527 428.16 24.3359C428.153 26.6396 429.5 28.1504 431.688 28.1504ZM429.616 23.6387C429.678 22.5928 430.437 21.6768 431.605 21.6836C432.72 21.6768 433.451 22.5107 433.451 23.6387H429.616Z" fill="#0069CC"/>
<path d="M47.2475 72H53.6049V71.125H48.6284V71.0566L51.0893 68.4043C52.7983 66.5996 53.3041 65.7656 53.3041 64.6582C53.3041 63.1406 52.0668 61.9648 50.351 61.9648C48.6147 61.9648 47.3295 63.1406 47.3295 64.8086H48.2592C48.2592 63.6465 49.0727 62.8193 50.3237 62.8262C51.4995 62.8193 52.3881 63.5645 52.4018 64.6582C52.3881 65.5947 51.8618 66.2783 50.5971 67.666L47.2475 71.2891V72ZM58.8888 72.1367C60.9943 72.1367 62.2248 70.2637 62.2248 67.0508C62.2248 63.8584 60.9806 61.9648 58.8888 61.9648C56.7902 61.9648 55.5392 63.8584 55.5392 67.0508C55.5392 70.2637 56.7765 72.1367 58.8888 72.1367ZM56.4962 67.0508C56.4894 64.3711 57.3849 62.8193 58.8888 62.8262C60.3791 62.8193 61.2746 64.3711 61.2814 67.0508C61.2746 69.7305 60.3859 71.2617 58.8888 71.2617C57.3781 71.2617 56.4894 69.7305 56.4962 67.0508ZM64.2137 72H70.5712V71.125H65.5946V71.0566L68.0555 68.4043C69.7645 66.5996 70.2704 65.7656 70.2704 64.6582C70.2704 63.1406 69.0331 61.9648 67.3173 61.9648C65.5809 61.9648 64.2958 63.1406 64.2958 64.8086H65.2255C65.2255 63.6465 66.0389 62.8193 67.2899 62.8262C68.4657 62.8193 69.3544 63.5645 69.368 64.6582C69.3544 65.5947 68.828 66.2783 67.5634 67.666L64.2137 71.2891V72ZM72.7379 72H79.0953V71.125H74.1187V71.0566L76.5797 68.4043C78.2887 66.5996 78.7945 65.7656 78.7945 64.6582C78.7945 63.1406 77.5572 61.9648 75.8414 61.9648C74.1051 61.9648 72.8199 63.1406 72.8199 64.8086H73.7496C73.7496 63.6465 74.5631 62.8193 75.8141 62.8262C76.9898 62.8193 77.8785 63.5645 77.8922 64.6582C77.8785 65.5947 77.3521 66.2783 76.0875 67.666L72.7379 71.2891V72ZM88.2276 61.6367H87.3662L84.1807 73.4902H85.042L88.2276 61.6367ZM93.5727 62.1016V72H94.4887V64.1113H94.5708L97.852 72H98.727L102.008 64.1113H102.09V72H103.02V62.1016H101.872L98.3442 70.6055H98.2485L94.7075 62.1016H93.5727ZM105.282 69.9219C105.276 71.3506 106.376 72.1709 107.73 72.1641C108.974 72.1709 109.712 71.4873 110.013 70.8516H110.068V72H110.997V66.9824C110.997 64.9453 109.425 64.4736 108.318 64.4668C106.773 64.4736 105.645 65.2461 105.487 66.4219H106.458C106.636 65.7451 107.292 65.2939 108.263 65.3008C109.432 65.2939 110.074 65.9023 110.068 66.9004V67.5977C109.712 67.6113 108.516 67.6934 108.017 67.7207C106.499 67.8438 105.276 68.4111 105.282 69.9219ZM106.212 69.9629C106.212 69.1084 106.841 68.6025 108.154 68.5137C108.523 68.4932 109.698 68.4043 110.068 68.3701V69.1699C110.074 70.3525 109.227 71.3301 107.866 71.3301C106.916 71.3301 106.212 70.8379 106.212 69.9629ZM113.601 74.7891C114.613 74.7822 115.297 74.249 115.707 73.1484L118.838 64.5762H117.84L115.666 70.7969H115.598L113.437 64.5762H112.426L115.16 72.0684L114.9 72.793C114.504 73.8799 114.025 73.9414 113.547 73.9414C113.396 73.9414 113.184 73.9346 113.096 73.9277L113.082 74.7617C113.205 74.7754 113.403 74.7822 113.601 74.7891ZM127.464 61.6367H126.603L123.417 73.4902H124.279L127.464 61.6367ZM135.762 62.1016H134.751L132.386 63.6602V64.6582L134.723 63.1133H134.778V72H135.762V62.1016ZM141.949 62.1016H140.937L138.572 63.6602V64.6582L140.91 63.1133H140.964V72H141.949V62.1016ZM152.708 62.1016H150.767L148.319 63.6602V65.4785L150.589 64.0566H150.644V72H152.708V62.1016ZM155.285 72H162.367V70.3047H158.142V70.25L159.646 68.7871C161.683 66.9414 162.23 66.0186 162.23 64.8906C162.23 63.1748 160.822 61.9648 158.703 61.9648C156.618 61.9648 155.182 63.2021 155.189 65.1367H157.144C157.137 64.1865 157.746 63.5986 158.675 63.6055C159.585 63.5986 160.248 64.1455 160.248 65.0273C160.248 65.8135 159.749 66.3604 158.826 67.2422L155.271 70.5098L155.285 72ZM165.313 70.8516C165.921 70.8516 166.448 70.3389 166.448 69.7031C166.448 69.0742 165.921 68.5615 165.313 68.5684C164.67 68.5615 164.151 69.0742 164.164 69.7031C164.151 70.3389 164.67 70.8516 165.313 70.8516ZM164.164 64.8359C164.151 65.4717 164.67 65.9844 165.313 65.9844C165.921 65.9844 166.448 65.4717 166.448 64.8359C166.448 64.207 165.921 63.6943 165.313 63.7012C164.67 63.6943 164.151 64.207 164.164 64.8359ZM172.005 72.1367C174.24 72.1367 175.847 70.9199 175.833 69.2246C175.847 67.9873 175.047 67.1055 173.591 66.9277V66.8457C174.698 66.6475 175.471 65.8613 175.464 64.7539C175.471 63.1885 174.097 61.9648 172.032 61.9648C170.002 61.9648 168.471 63.1475 168.437 64.8496H170.405C170.44 64.0908 171.157 63.5986 172.032 63.6055C172.907 63.5986 173.488 64.1182 173.482 64.877C173.488 65.6562 172.805 66.1895 171.827 66.1895H170.911V67.707H171.827C172.989 67.7139 173.707 68.2812 173.7 69.0879C173.707 69.8877 173.003 70.4346 172.019 70.4414C171.062 70.4346 170.344 69.9492 170.31 69.2109H168.232C168.273 70.9404 169.831 72.1367 172.005 72.1367ZM181.226 72.1367C183.462 72.1367 185.068 70.9199 185.055 69.2246C185.068 67.9873 184.268 67.1055 182.812 66.9277V66.8457C183.92 66.6475 184.692 65.8613 184.685 64.7539C184.692 63.1885 183.318 61.9648 181.254 61.9648C179.223 61.9648 177.692 63.1475 177.658 64.8496H179.627C179.661 64.0908 180.379 63.5986 181.254 63.6055C182.129 63.5986 182.71 64.1182 182.703 64.877C182.71 65.6562 182.026 66.1895 181.049 66.1895H180.133V67.707H181.049C182.211 67.7139 182.929 68.2812 182.922 69.0879C182.929 69.8877 182.224 70.4346 181.24 70.4414C180.283 70.4346 179.565 69.9492 179.531 69.2109H177.453C177.494 70.9404 179.053 72.1367 181.226 72.1367ZM187.987 70.8516C188.595 70.8516 189.122 70.3389 189.122 69.7031C189.122 69.0742 188.595 68.5615 187.987 68.5684C187.344 68.5615 186.825 69.0742 186.838 69.7031C186.825 70.3389 187.344 70.8516 187.987 70.8516ZM186.838 64.8359C186.825 65.4717 187.344 65.9844 187.987 65.9844C188.595 65.9844 189.122 65.4717 189.122 64.8359C189.122 64.207 188.595 63.6943 187.987 63.7012C187.344 63.6943 186.825 64.207 186.838 64.8359ZM194.857 72.1367C197.331 72.1367 198.835 70.3047 198.835 67.0508C198.835 63.8174 197.324 61.9648 194.857 61.9648C192.389 61.9648 190.878 63.8174 190.878 67.0508C190.878 70.291 192.375 72.1367 194.857 72.1367ZM192.984 67.0508C192.984 64.7881 193.715 63.6533 194.857 63.6465C195.998 63.6533 196.737 64.7881 196.73 67.0508C196.737 69.334 196.005 70.4414 194.857 70.4414C193.708 70.4414 192.97 69.334 192.984 67.0508ZM204.379 72.1367C206.854 72.1367 208.357 70.3047 208.357 67.0508C208.357 63.8174 206.847 61.9648 204.379 61.9648C201.911 61.9648 200.4 63.8174 200.4 67.0508C200.4 70.291 201.897 72.1367 204.379 72.1367ZM202.506 67.0508C202.506 64.7881 203.237 63.6533 204.379 63.6465C205.521 63.6533 206.259 64.7881 206.252 67.0508C206.259 69.334 205.527 70.4414 204.379 70.4414C203.23 70.4414 202.492 69.334 202.506 67.0508Z" fill="#484848"/>
<line x1="234.5" y1="45" x2="234.5" y2="90" stroke="#D8D8D8"/>
<rect x="227.5" y="60.5" width="13" height="13" rx="6.5" fill="#6638B6" stroke="#EBEAF6" stroke-width="3"/>
<line x1="234.5" y1="45" x2="234.5" y2="59" stroke="#D8D8D8"/>
<path d="M266.996 63.1016H265.52V70.3477H265.424L260.406 63.1016H259.012V73H260.516V65.7676H260.598L265.615 73H266.996V63.1016ZM272.321 73.1504C274.413 73.1504 275.78 71.6191 275.78 69.3223C275.78 67.0117 274.413 65.4805 272.321 65.4805C270.216 65.4805 268.842 67.0117 268.848 69.3223C268.842 71.6191 270.216 73.1504 272.321 73.1504ZM270.311 69.3223C270.311 67.9004 270.961 66.6904 272.321 66.6836C273.661 66.6904 274.303 67.9004 274.303 69.3223C274.303 70.7373 273.661 71.9336 272.321 71.9336C270.961 71.9336 270.311 70.7373 270.311 69.3223ZM280.968 65.5762H279.451V63.7988H278.001V65.5762H276.908V66.7383H278.001V71.1133C277.988 72.4668 279.02 73.0957 280.162 73.0957C280.565 73.0957 280.879 73.0684 281.078 73.041V71.7695C280.872 71.79 280.551 71.8105 280.339 71.8105C279.868 71.8037 279.457 71.6533 279.451 70.8125V66.7383H280.968V65.5762ZM282.67 73H284.133V65.5762H282.67V73ZM282.479 63.5664C282.486 64.0449 282.903 64.4346 283.408 64.4277C283.907 64.4346 284.324 64.0449 284.324 63.5664C284.324 63.0879 283.907 62.7051 283.408 62.7051C282.903 62.7051 282.486 63.0879 282.479 63.5664ZM289.731 65.5762H288.132V64.9336C288.132 64.209 288.494 63.8945 289.266 63.8945C289.396 63.8945 289.608 63.9082 289.882 63.9492V62.7324C289.595 62.6777 289.232 62.6367 288.884 62.6367C287.523 62.6367 286.676 63.3887 286.669 64.7148V65.5762H285.52V66.7383H286.669V73H288.132V66.7383H289.731V65.5762ZM291.338 73H292.8V65.5762H291.338V73ZM291.146 63.5664C291.153 64.0449 291.57 64.4346 292.076 64.4277C292.575 64.4346 292.992 64.0449 292.992 63.5664C292.992 63.0879 292.575 62.7051 292.076 62.7051C291.57 62.7051 291.153 63.0879 291.146 63.5664ZM298.057 73.1504C299.691 73.1504 300.832 72.3438 301.16 71.1406H299.684C299.438 71.5918 298.898 71.9473 298.071 71.9473C296.854 71.9473 296.02 71.1475 295.979 69.7324H301.256V69.2129C301.256 66.5264 299.65 65.4805 297.961 65.4805C295.89 65.4805 294.523 67.0527 294.53 69.3359C294.523 71.6396 295.869 73.1504 298.057 73.1504ZM295.986 68.6387C296.047 67.5928 296.806 66.6768 297.975 66.6836C299.089 66.6768 299.821 67.5107 299.821 68.6387H295.986ZM305.761 73.1504C307.114 73.1436 307.647 72.3232 307.921 71.8379H308.03V73H309.452V63.1016H307.989V66.7793H307.921C307.654 66.3145 307.155 65.4805 305.774 65.4805C303.99 65.4805 302.657 66.8887 302.657 69.3086C302.657 71.7012 303.97 73.1436 305.761 73.1504ZM304.147 69.2812C304.141 67.8184 304.797 66.7178 306.089 66.7246C307.347 66.7178 308.03 67.7363 308.03 69.2812C308.03 70.8398 307.333 71.8994 306.089 71.9062C304.811 71.8994 304.141 70.7715 304.147 69.2812ZM315.454 73H316.875V71.8379H316.985C317.258 72.3232 317.785 73.1436 319.131 73.1504C320.929 73.1436 322.242 71.7012 322.249 69.3086C322.242 66.8887 320.916 65.4805 319.118 65.4805C317.744 65.4805 317.251 66.3145 316.985 66.7793H316.903V63.1016H315.454V73ZM316.875 69.2812C316.875 67.7363 317.552 66.7178 318.803 66.7246C320.109 66.7178 320.758 67.8184 320.758 69.2812C320.758 70.7715 320.088 71.8994 318.803 71.9062C317.573 71.8994 316.875 70.8398 316.875 69.2812ZM324.62 75.7891C325.844 75.7822 326.596 75.1602 327.027 73.9844L330.089 65.5762H328.517L326.644 71.332H326.562L324.689 65.5762H323.13L325.851 73.0957L325.673 73.5879C325.324 74.5244 324.948 74.5518 324.497 74.5586C324.292 74.5518 324.005 74.5449 323.841 74.5312V75.748C324.026 75.7754 324.32 75.7822 324.62 75.7891ZM336.719 63.1016H335.256V73H336.719V63.1016ZM341.976 73.1504C343.61 73.1504 344.751 72.3438 345.079 71.1406H343.603C343.357 71.5918 342.817 71.9473 341.99 71.9473C340.773 71.9473 339.939 71.1475 339.898 69.7324H345.175V69.2129C345.175 66.5264 343.569 65.4805 341.88 65.4805C339.809 65.4805 338.442 67.0527 338.449 69.3359C338.442 71.6396 339.788 73.1504 341.976 73.1504ZM339.905 68.6387C339.966 67.5928 340.725 66.6768 341.894 66.6836C343.008 66.6768 343.74 67.5107 343.74 68.6387H339.905ZM353.043 65.5762H351.471L349.598 71.2773H349.529L347.656 65.5762H346.084L348.777 73H350.35L353.043 65.5762ZM357.452 73.1504C359.086 73.1504 360.227 72.3438 360.555 71.1406H359.079C358.833 71.5918 358.293 71.9473 357.466 71.9473C356.249 71.9473 355.415 71.1475 355.374 69.7324H360.651V69.2129C360.651 66.5264 359.045 65.4805 357.356 65.4805C355.285 65.4805 353.918 67.0527 353.925 69.3359C353.918 71.6396 355.264 73.1504 357.452 73.1504ZM355.381 68.6387C355.442 67.5928 356.201 66.6768 357.37 66.6836C358.484 66.6768 359.216 67.5107 359.216 68.6387H355.381ZM363.843 63.1016H362.38V73H363.843V63.1016ZM373.345 63.1016H371.868L369.407 64.7148V66.1504L371.772 64.6055H371.827V73H373.345V63.1016Z" fill="#1D1D1F"/>
<rect width="480" height="64" transform="translate(30 90)" fill="white"/>
<path d="M47.1772 117H53.5346V116.125H48.558V116.057L51.019 113.404C52.728 111.6 53.2338 110.766 53.2338 109.658C53.2338 108.141 51.9965 106.965 50.2807 106.965C48.5444 106.965 47.2592 108.141 47.2592 109.809H48.1889C48.1889 108.646 49.0024 107.819 50.2534 107.826C51.4291 107.819 52.3178 108.564 52.3315 109.658C52.3178 110.595 51.7914 111.278 50.5268 112.666L47.1772 116.289V117ZM58.8185 117.137C60.924 117.137 62.1545 115.264 62.1545 112.051C62.1545 108.858 60.9103 106.965 58.8185 106.965C56.7199 106.965 55.4689 108.858 55.4689 112.051C55.4689 115.264 56.7062 117.137 58.8185 117.137ZM56.4259 112.051C56.4191 109.371 57.3146 107.819 58.8185 107.826C60.3087 107.819 61.2043 109.371 61.2111 112.051C61.2043 114.73 60.3156 116.262 58.8185 116.262C57.3078 116.262 56.4191 114.73 56.4259 112.051ZM64.1434 117H70.5009V116.125H65.5243V116.057L67.9852 113.404C69.6942 111.6 70.2001 110.766 70.2001 109.658C70.2001 108.141 68.9628 106.965 67.247 106.965C65.5106 106.965 64.2255 108.141 64.2255 109.809H65.1552C65.1552 108.646 65.9686 107.819 67.2196 107.826C68.3954 107.819 69.2841 108.564 69.2977 109.658C69.2841 110.595 68.7577 111.278 67.493 112.666L64.1434 116.289V117ZM72.6676 117H79.025V116.125H74.0484V116.057L76.5094 113.404C78.2184 111.6 78.7242 110.766 78.7242 109.658C78.7242 108.141 77.4869 106.965 75.7711 106.965C74.0348 106.965 72.7496 108.141 72.7496 109.809H73.6793C73.6793 108.646 74.4928 107.819 75.7437 107.826C76.9195 107.819 77.8082 108.564 77.8219 109.658C77.8082 110.595 77.2818 111.278 76.0172 112.666L72.6676 116.289V117ZM88.1573 106.637H87.2959L84.1104 118.49H84.9717L88.1573 106.637ZM93.5024 107.102V117H94.4184V109.111H94.5005L97.7817 117H98.6567L101.938 109.111H102.02V117H102.95V107.102H101.801L98.2739 115.605H98.1782L94.6372 107.102H93.5024ZM105.212 114.922C105.205 116.351 106.306 117.171 107.659 117.164C108.904 117.171 109.642 116.487 109.943 115.852H109.997V117H110.927V111.982C110.927 109.945 109.355 109.474 108.247 109.467C106.702 109.474 105.574 110.246 105.417 111.422H106.388C106.566 110.745 107.222 110.294 108.193 110.301C109.362 110.294 110.004 110.902 109.997 111.9V112.598C109.642 112.611 108.446 112.693 107.946 112.721C106.429 112.844 105.205 113.411 105.212 114.922ZM106.142 114.963C106.142 114.108 106.771 113.603 108.083 113.514C108.452 113.493 109.628 113.404 109.997 113.37V114.17C110.004 115.353 109.156 116.33 107.796 116.33C106.846 116.33 106.142 115.838 106.142 114.963ZM113.531 119.789C114.543 119.782 115.226 119.249 115.637 118.148L118.767 109.576H117.769L115.596 115.797H115.527L113.367 109.576H112.355L115.09 117.068L114.83 117.793C114.434 118.88 113.955 118.941 113.476 118.941C113.326 118.941 113.114 118.935 113.025 118.928L113.012 119.762C113.135 119.775 113.333 119.782 113.531 119.789ZM127.394 106.637H126.533L123.347 118.49H124.208L127.394 106.637ZM135.692 107.102H134.68L132.315 108.66V109.658L134.653 108.113H134.708V117H135.692V107.102ZM141.878 107.102H140.867L138.501 108.66V109.658L140.839 108.113H140.894V117H141.878V107.102ZM152.638 107.102H150.696L148.249 108.66V110.479L150.519 109.057H150.573V117H152.638V107.102ZM155.215 117H162.297V115.305H158.072V115.25L159.576 113.787C161.613 111.941 162.16 111.019 162.16 109.891C162.16 108.175 160.752 106.965 158.632 106.965C156.548 106.965 155.112 108.202 155.119 110.137H157.074C157.067 109.187 157.675 108.599 158.605 108.605C159.514 108.599 160.177 109.146 160.177 110.027C160.177 110.813 159.678 111.36 158.756 112.242L155.201 115.51L155.215 117ZM165.243 115.852C165.851 115.852 166.377 115.339 166.377 114.703C166.377 114.074 165.851 113.562 165.243 113.568C164.6 113.562 164.08 114.074 164.094 114.703C164.08 115.339 164.6 115.852 165.243 115.852ZM164.094 109.836C164.08 110.472 164.6 110.984 165.243 110.984C165.851 110.984 166.377 110.472 166.377 109.836C166.377 109.207 165.851 108.694 165.243 108.701C164.6 108.694 164.08 109.207 164.094 109.836ZM171.935 117.137C174.17 117.137 175.776 115.92 175.763 114.225C175.776 112.987 174.977 112.105 173.521 111.928V111.846C174.628 111.647 175.401 110.861 175.394 109.754C175.401 108.188 174.026 106.965 171.962 106.965C169.932 106.965 168.401 108.147 168.366 109.85H170.335C170.369 109.091 171.087 108.599 171.962 108.605C172.837 108.599 173.418 109.118 173.411 109.877C173.418 110.656 172.734 111.189 171.757 111.189H170.841V112.707H171.757C172.919 112.714 173.637 113.281 173.63 114.088C173.637 114.888 172.933 115.435 171.948 115.441C170.991 115.435 170.274 114.949 170.239 114.211H168.161C168.202 115.94 169.761 117.137 171.935 117.137ZM181.211 117.137C183.467 117.137 185.094 115.947 185.094 114.334C185.094 113.09 184.123 112.078 182.92 111.887V111.818C183.959 111.613 184.718 110.718 184.724 109.631C184.718 108.093 183.234 106.965 181.211 106.965C179.187 106.965 177.704 108.093 177.711 109.631C177.704 110.718 178.442 111.613 179.515 111.818V111.887C178.285 112.078 177.328 113.09 177.328 114.334C177.328 115.947 178.948 117.137 181.211 117.137ZM179.474 114.129C179.468 113.268 180.206 112.646 181.211 112.639C182.216 112.646 182.954 113.274 182.947 114.129C182.954 114.977 182.257 115.571 181.211 115.564C180.165 115.571 179.468 114.977 179.474 114.129ZM179.721 109.836C179.714 109.063 180.322 108.523 181.211 108.523C182.093 108.523 182.708 109.063 182.715 109.836C182.708 110.629 182.079 111.183 181.211 111.189C180.336 111.183 179.714 110.629 179.721 109.836ZM187.985 115.852C188.593 115.852 189.12 115.339 189.12 114.703C189.12 114.074 188.593 113.562 187.985 113.568C187.342 113.562 186.823 114.074 186.836 114.703C186.823 115.339 187.342 115.852 187.985 115.852ZM186.836 109.836C186.823 110.472 187.342 110.984 187.985 110.984C188.593 110.984 189.12 110.472 189.12 109.836C189.12 109.207 188.593 108.694 187.985 108.701C187.342 108.694 186.823 109.207 186.836 109.836ZM194.677 117.137C196.912 117.137 198.519 115.92 198.505 114.225C198.519 112.987 197.719 112.105 196.263 111.928V111.846C197.37 111.647 198.143 110.861 198.136 109.754C198.143 108.188 196.769 106.965 194.704 106.965C192.674 106.965 191.143 108.147 191.109 109.85H193.077C193.112 109.091 193.829 108.599 194.704 108.605C195.579 108.599 196.16 109.118 196.154 109.877C196.16 110.656 195.477 111.189 194.499 111.189H193.583V112.707H194.499C195.661 112.714 196.379 113.281 196.372 114.088C196.379 114.888 195.675 115.435 194.691 115.441C193.734 115.435 193.016 114.949 192.982 114.211H190.904C190.945 115.94 192.503 117.137 194.677 117.137ZM200.234 117H207.316V115.305H203.092V115.25L204.596 113.787C206.633 111.941 207.18 111.019 207.18 109.891C207.18 108.175 205.771 106.965 203.652 106.965C201.567 106.965 200.132 108.202 200.139 110.137H202.094C202.087 109.187 202.695 108.599 203.625 108.605C204.534 108.599 205.197 109.146 205.197 110.027C205.197 110.813 204.698 111.36 203.775 112.242L200.221 115.51L200.234 117Z" fill="#484848"/>
<line x1="234.5" y1="90" x2="234.5" y2="154" stroke="#D8D8D8"/>
<rect x="227.5" y="105.5" width="13" height="13" rx="6.5" fill="#6638B6" stroke="#EBEAF6" stroke-width="3"/>
<line x1="234.5" y1="90" x2="234.5" y2="104" stroke="#D8D8D8"/>
<path d="M259.859 118L260.762 115.389H264.617L265.52 118H267.119L263.551 108.102H261.814L258.26 118H259.859ZM261.192 114.131L262.648 109.906H262.717L264.18 114.131H261.192ZM271.555 118.15C273.305 118.15 274.447 117.091 274.604 115.648H273.182C272.998 116.448 272.383 116.913 271.555 116.906C270.332 116.913 269.546 115.908 269.546 114.281C269.546 112.702 270.352 111.704 271.555 111.697C272.478 111.704 273.032 112.285 273.182 112.982H274.604C274.447 111.479 273.223 110.48 271.528 110.48C269.436 110.48 268.076 112.06 268.083 114.322C268.076 116.558 269.388 118.15 271.555 118.15ZM276.265 118H277.728V115.361L278.432 114.664L280.955 118H282.746L279.539 113.762L282.54 110.576H280.79L277.851 113.707H277.728V108.102H276.265V118ZM285.432 113.598C285.432 112.415 286.15 111.738 287.154 111.738C288.139 111.738 288.72 112.381 288.727 113.461V118H290.176V113.283C290.183 111.444 289.171 110.48 287.647 110.48C286.539 110.48 285.808 110.993 285.459 111.793H285.377V110.576H283.969V118H285.432V113.598ZM295.378 118.15C297.47 118.15 298.837 116.619 298.837 114.322C298.837 112.012 297.47 110.48 295.378 110.48C293.272 110.48 291.898 112.012 291.905 114.322C291.898 116.619 293.272 118.15 295.378 118.15ZM293.368 114.322C293.368 112.9 294.017 111.69 295.378 111.684C296.718 111.69 297.36 112.9 297.36 114.322C297.36 115.737 296.718 116.934 295.378 116.934C294.017 116.934 293.368 115.737 293.368 114.322ZM301.92 118H303.423L304.914 112.654H305.023L306.527 118H308.017L310.191 110.576H308.687L307.252 115.99H307.17L305.734 110.576H304.23L302.781 116.018H302.699L301.25 110.576H299.746L301.92 118ZM313.137 108.102H311.674V118H313.137V108.102ZM318.394 118.15C320.027 118.15 321.169 117.344 321.497 116.141H320.021C319.774 116.592 319.234 116.947 318.407 116.947C317.19 116.947 316.356 116.147 316.315 114.732H321.593V114.213C321.593 111.526 319.986 110.48 318.298 110.48C316.227 110.48 314.859 112.053 314.866 114.336C314.859 116.64 316.206 118.15 318.394 118.15ZM316.322 113.639C316.384 112.593 317.143 111.677 318.312 111.684C319.426 111.677 320.157 112.511 320.157 113.639H316.322ZM326.097 118.15C327.451 118.144 327.984 117.323 328.258 116.838H328.367V118H329.789V108.102H328.326V111.779H328.258C327.991 111.314 327.492 110.48 326.111 110.48C324.327 110.48 322.994 111.889 322.994 114.309C322.994 116.701 324.306 118.144 326.097 118.15ZM324.484 114.281C324.477 112.818 325.134 111.718 326.426 111.725C327.683 111.718 328.367 112.736 328.367 114.281C328.367 115.84 327.67 116.899 326.426 116.906C325.147 116.899 324.477 115.771 324.484 114.281ZM335.086 120.939C337 120.939 338.443 120.071 338.436 118.164V110.576H337.014V111.779H336.918C336.645 111.314 336.139 110.48 334.758 110.48C332.974 110.48 331.641 111.841 331.641 114.213C331.641 116.585 332.995 117.891 334.745 117.891C336.112 117.891 336.645 117.125 336.905 116.646H337V118.109C336.994 119.265 336.262 119.771 335.1 119.764C334.136 119.771 333.48 119.429 333.336 118.725H331.846C331.976 120.112 333.213 120.939 335.086 120.939ZM333.131 114.24C333.124 112.818 333.781 111.718 335.073 111.725C336.331 111.718 337.014 112.736 337.014 114.24C337.014 115.771 336.317 116.681 335.073 116.688C333.794 116.681 333.124 115.696 333.131 114.24ZM343.693 118.15C345.326 118.15 346.468 117.344 346.796 116.141H345.32C345.073 116.592 344.533 116.947 343.706 116.947C342.489 116.947 341.655 116.147 341.614 114.732H346.892V114.213C346.892 111.526 345.285 110.48 343.597 110.48C341.526 110.48 340.158 112.053 340.165 114.336C340.158 116.64 341.505 118.15 343.693 118.15ZM341.621 113.639C341.683 112.593 342.442 111.677 343.611 111.684C344.725 111.677 345.456 112.511 345.456 113.639H341.621ZM351.396 118.15C352.75 118.144 353.283 117.323 353.557 116.838H353.666V118H355.088V108.102H353.625V111.779H353.557C353.29 111.314 352.791 110.48 351.41 110.48C349.626 110.48 348.293 111.889 348.293 114.309C348.293 116.701 349.605 118.144 351.396 118.15ZM349.783 114.281C349.776 112.818 350.433 111.718 351.725 111.725C352.982 111.718 353.666 112.736 353.666 114.281C353.666 115.84 352.969 116.899 351.725 116.906C350.446 116.899 349.776 115.771 349.783 114.281ZM361.089 118H362.511V116.838H362.62C362.894 117.323 363.42 118.144 364.767 118.15C366.565 118.144 367.877 116.701 367.884 114.309C367.877 111.889 366.551 110.48 364.753 110.48C363.379 110.48 362.887 111.314 362.62 111.779H362.538V108.102H361.089V118ZM362.511 114.281C362.511 112.736 363.188 111.718 364.439 111.725C365.744 111.718 366.394 112.818 366.394 114.281C366.394 115.771 365.724 116.899 364.439 116.906C363.208 116.899 362.511 115.84 362.511 114.281ZM370.256 120.789C371.48 120.782 372.232 120.16 372.662 118.984L375.725 110.576H374.152L372.279 116.332H372.197L370.324 110.576H368.766L371.486 118.096L371.309 118.588C370.96 119.524 370.584 119.552 370.133 119.559C369.928 119.552 369.641 119.545 369.477 119.531V120.748C369.661 120.775 369.955 120.782 370.256 120.789Z" fill="#1D1D1F"/>
<path d="M380.892 118H382.355V113.42C382.355 112.422 383.052 111.738 383.873 111.738C384.672 111.738 385.226 112.265 385.226 113.078V118H386.675V113.27C386.675 112.381 387.215 111.738 388.152 111.738C388.918 111.738 389.546 112.155 389.546 113.16V118H391.009V113.023C391.002 111.321 390.052 110.48 388.712 110.48C387.639 110.48 386.833 110.993 386.484 111.793H386.402C386.087 110.966 385.397 110.48 384.406 110.48C383.428 110.48 382.697 110.966 382.382 111.793H382.3V110.576H380.892V118ZM392.889 118H398.864V116.742H394.871V116.674L398.727 111.629V110.576H393.026V111.834H396.908V111.902L392.889 117.002V118ZM405.542 116.66C406.533 116.66 406.971 115.983 407.142 115.635H407.21C407.312 116.264 407.976 116.715 408.864 116.715C410.32 116.722 411.394 115.505 411.394 113.406C411.4 110.439 409.179 108.225 405.938 108.225C402.732 108.225 400.463 110.583 400.47 113.816C400.47 117.262 402.5 119.422 405.884 119.422C406.786 119.422 407.613 119.299 408.331 119.094V118C407.531 118.219 406.848 118.294 405.884 118.301C403.088 118.321 401.618 116.53 401.618 113.816C401.625 111.321 403.307 109.353 405.938 109.346C408.488 109.346 410.259 110.973 410.245 113.447C410.238 114.773 409.732 115.669 408.96 115.662C408.55 115.669 408.352 115.423 408.331 114.924V111.096H407.142V111.916H407.073C406.902 111.574 406.485 110.986 405.542 110.986C404.257 110.986 403.238 112.019 403.231 113.816C403.238 115.607 404.223 116.66 405.542 116.66ZM404.517 113.803C404.51 112.839 404.981 112.114 405.843 112.107C406.718 112.114 407.162 112.784 407.169 113.803C407.162 114.849 406.711 115.532 405.843 115.539C404.988 115.532 404.51 114.794 404.517 113.803ZM413.246 118H414.709V113.42C414.709 112.422 415.406 111.738 416.226 111.738C417.026 111.738 417.58 112.265 417.58 113.078V118H419.029V113.27C419.029 112.381 419.569 111.738 420.506 111.738C421.271 111.738 421.9 112.155 421.9 113.16V118H423.363V113.023C423.356 111.321 422.406 110.48 421.066 110.48C419.993 110.48 419.186 110.993 418.838 111.793H418.756C418.441 110.966 417.751 110.48 416.759 110.48C415.782 110.48 415.05 110.966 414.736 111.793H414.654V110.576H413.246V118ZM425.243 118H431.217V116.742H427.225V116.674L431.08 111.629V110.576H425.379V111.834H429.262V111.902L425.243 117.002V118ZM433.985 118.096C434.512 118.089 434.949 117.658 434.956 117.125C434.949 116.592 434.512 116.154 433.985 116.154C433.452 116.154 433.008 116.592 433.015 117.125C433.008 117.658 433.452 118.089 433.985 118.096ZM440.144 118.15C441.894 118.15 443.036 117.091 443.193 115.648H441.771C441.587 116.448 440.972 116.913 440.144 116.906C438.921 116.913 438.135 115.908 438.135 114.281C438.135 112.702 438.941 111.704 440.144 111.697C441.067 111.704 441.621 112.285 441.771 112.982H443.193C443.036 111.479 441.812 110.48 440.117 110.48C438.025 110.48 436.665 112.06 436.672 114.322C436.665 116.558 437.977 118.15 440.144 118.15ZM447.999 118.15C450.09 118.15 451.458 116.619 451.458 114.322C451.458 112.012 450.09 110.48 447.999 110.48C445.893 110.48 444.519 112.012 444.526 114.322C444.519 116.619 445.893 118.15 447.999 118.15ZM445.989 114.322C445.989 112.9 446.638 111.69 447.999 111.684C449.338 111.69 449.981 112.9 449.981 114.322C449.981 115.737 449.338 116.934 447.999 116.934C446.638 116.934 445.989 115.737 445.989 114.322ZM454.13 118.096C454.657 118.089 455.094 117.658 455.101 117.125C455.094 116.592 454.657 116.154 454.13 116.154C453.597 116.154 453.153 116.592 453.159 117.125C453.153 117.658 453.597 118.089 454.13 118.096ZM457.145 118H458.607V115.361L459.312 114.664L461.834 118H463.625L460.419 113.762L463.42 110.576H461.67L458.73 113.707H458.607V108.102H457.145V118ZM464.848 118H466.311V113.475C466.311 112.504 467.063 111.8 468.075 111.807C468.376 111.8 468.717 111.861 468.841 111.889V110.494C468.69 110.48 468.403 110.46 468.225 110.467C467.357 110.46 466.612 110.959 466.339 111.752H466.257V110.576H464.848V118Z" fill="#003566"/>
</g>
</g>
<defs>
<filter id="filter0_d_2815_202131" x="26" y="262" width="500" height="125" filterUnits="userSpaceOnUse" color-interpolation-filters="sRGB">
<feFlood flood-opacity="0" result="BackgroundImageFix"/>
<feColorMatrix in="SourceAlpha" type="matrix" values="0 0 0 0 0 0 0 0 0 0 0 0 0 0 0 0 0 0 127 0" result="hardAlpha"/>
<feMorphology radius="4" operator="dilate" in="SourceAlpha" result="effect1_dropShadow_2815_202131"/>
<feOffset dx="6" dy="4"/>
<feGaussianBlur stdDeviation="3"/>
<feComposite in2="hardAlpha" operator="out"/>
<feColorMatrix type="matrix" values="0 0 0 0 0.716667 0 0 0 0 0.716667 0 0 0 0 0.716667 0 0 0 0.45 0"/>
<feBlend mode="normal" in2="BackgroundImageFix" result="effect1_dropShadow_2815_202131"/>
<feBlend mode="normal" in="SourceGraphic" in2="effect1_dropShadow_2815_202131" result="shape"/>
</filter>
<filter id="filter1_d_2815_202131" x="242" y="182" width="252" height="76" filterUnits="userSpaceOnUse" color-interpolation-filters="sRGB">
<feFlood flood-opacity="0" result="BackgroundImageFix"/>
<feColorMatrix in="SourceAlpha" type="matrix" values="0 0 0 0 0 0 0 0 0 0 0 0 0 0 0 0 0 0 127 0" result="hardAlpha"/>
<feMorphology radius="4" operator="dilate" in="SourceAlpha" result="effect1_dropShadow_2815_202131"/>
<feOffset dx="12" dy="8"/>
<feGaussianBlur stdDeviation="7"/>
<feComposite in2="hardAlpha" operator="out"/>
<feColorMatrix type="matrix" values="0 0 0 0 0.833333 0 0 0 0 0.833333 0 0 0 0 0.833333 0 0 0 0.35 0"/>
<feBlend mode="normal" in2="BackgroundImageFix" result="effect1_dropShadow_2815_202131"/>
<feBlend mode="normal" in="SourceGraphic" in2="effect1_dropShadow_2815_202131" result="shape"/>
</filter>
<filter id="filter2_d_2815_202131" x="26" y="-6" width="500" height="174" filterUnits="userSpaceOnUse" color-interpolation-filters="sRGB">
<feFlood flood-opacity="0" result="BackgroundImageFix"/>
<feColorMatrix in="SourceAlpha" type="matrix" values="0 0 0 0 0 0 0 0 0 0 0 0 0 0 0 0 0 0 127 0" result="hardAlpha"/>
<feMorphology radius="4" operator="dilate" in="SourceAlpha" result="effect1_dropShadow_2815_202131"/>
<feOffset dx="6" dy="4"/>
<feGaussianBlur stdDeviation="3"/>
<feComposite in2="hardAlpha" operator="out"/>
<feColorMatrix type="matrix" values="0 0 0 0 0.716667 0 0 0 0 0.716667 0 0 0 0 0.716667 0 0 0 0.45 0"/>
<feBlend mode="normal" in2="BackgroundImageFix" result="effect1_dropShadow_2815_202131"/>
<feBlend mode="normal" in="SourceGraphic" in2="effect1_dropShadow_2815_202131" result="shape"/>
</filter>
</defs>
</svg>
