<svg width="40" height="48" viewBox="0 0 40 48" fill="none" xmlns="http://www.w3.org/2000/svg">
<path d="M19.9914 42C23.089 42.001 26.1341 41.2003 28.8307 39.6759L34.025 41.1827C34.4642 41.3106 34.9297 41.3182 35.3728 41.2046C35.8159 41.091 36.2203 40.8604 36.5438 40.5369C36.8673 40.2134 37.0979 39.809 37.2115 39.3659C37.3251 38.9228 37.3175 38.4573 37.1896 38.0181L35.6867 32.8276C37.6256 29.3822 38.3762 25.3942 37.8226 21.4796C37.2691 17.565 35.442 13.9415 32.6238 11.1688C29.8055 8.3961 26.1528 6.62838 22.2296 6.13865C18.3065 5.64893 14.3313 6.46444 10.9179 8.45924C7.50452 10.454 4.84281 13.5172 3.34387 17.1756C1.84494 20.8339 1.59215 24.8841 2.62456 28.7004C3.65698 32.5168 5.91715 35.8871 9.05602 38.2909C12.1949 40.6946 16.0379 41.9981 19.9914 42ZM8.62667 12.612C11.4 9.85222 15.0845 8.19835 18.9899 7.9603C22.8952 7.72224 26.7533 8.91632 29.8413 11.3188C32.9294 13.7213 35.0354 17.1674 35.7649 21.0113C36.4945 24.8553 35.7973 28.8333 33.8042 32.2001C33.7352 32.3155 33.6909 32.4439 33.6742 32.5773C33.6576 32.7107 33.6688 32.846 33.7074 32.9748L35.3303 38.5642C35.365 38.672 35.3692 38.7873 35.3426 38.8973C35.3159 39.0074 35.2595 39.108 35.1794 39.188C35.0994 39.2681 34.9988 39.3245 34.8887 39.3511C34.7787 39.3778 34.6634 39.3735 34.5556 39.3389L28.9817 37.7004C28.8529 37.6619 28.7176 37.6507 28.5842 37.6673C28.4508 37.684 28.3224 37.7283 28.207 37.7973C24.8402 39.7904 20.8622 40.4875 17.0182 39.758C13.1743 39.0285 9.72823 36.9225 7.32573 33.8344C4.92322 30.7464 3.72914 26.8882 3.9672 22.9829C4.20526 19.0776 5.85912 15.3931 8.61893 12.6198L8.62667 12.612Z" fill="#86868B"/>
<path d="M19.7007 35.0123C21.0658 35.524 22.5492 35.6325 23.9742 35.3248C25.3992 35.0171 26.7057 34.3063 27.7381 33.277L28.6484 32.3667C28.9225 32.0925 29.1269 31.7567 29.2447 31.3873C29.3624 31.0179 29.39 30.6257 29.3252 30.2435C29.2603 29.8612 29.1049 29.5001 28.872 29.1902C28.639 28.8803 28.3352 28.6307 27.986 28.4623L23.1674 26.1382C22.9834 26.0494 22.7761 26.021 22.575 26.0572C22.3739 26.0934 22.1895 26.1922 22.048 26.3396L20.549 27.889H20.5102C19.5126 27.4922 18.6062 26.8965 17.8463 26.1379C17.0865 25.3794 16.4891 24.4741 16.0906 23.4771L17.64 21.9277C17.7815 21.7856 17.8753 21.6031 17.9086 21.4054C17.9419 21.2076 17.913 21.0044 17.8259 20.8238L15.5018 16.0052C15.3334 15.656 15.0838 15.3522 14.7739 15.1193C14.464 14.8863 14.1028 14.7309 13.7206 14.666C13.3384 14.6012 12.9462 14.6288 12.5768 14.7465C12.2074 14.8643 11.8716 15.0688 11.5974 15.3428L10.6949 16.2337C9.66653 17.2651 8.9557 18.5699 8.64673 19.9932C8.33777 21.4165 8.44365 22.8985 8.9518 24.2634C9.87025 26.7197 11.3051 28.9504 13.1594 30.8047C15.0137 32.659 17.2444 34.0938 19.7007 35.0123ZM12.0699 17.6088L12.9802 16.6986C13.0359 16.6464 13.1029 16.6079 13.176 16.5861C13.2491 16.5643 13.3263 16.5598 13.4014 16.5729C13.4765 16.5861 13.5476 16.6165 13.6089 16.6619C13.6703 16.7072 13.7203 16.7662 13.7549 16.8341L15.7923 21.0368L14.6497 22.1795C14.4079 22.4266 14.2428 22.7383 14.174 23.0771C14.1053 23.4159 14.136 23.7674 14.2623 24.0891C14.75 25.3501 15.492 26.4971 16.4423 27.4587C17.3926 28.4204 18.5308 29.176 19.7859 29.6785L19.8982 29.7211C20.234 29.8555 20.6022 29.8863 20.9556 29.8097C21.309 29.7331 21.6314 29.5525 21.8814 29.2912L22.9466 28.1834L27.1338 30.2014C27.2018 30.2361 27.2608 30.2861 27.3061 30.3474C27.3514 30.4088 27.3819 30.4798 27.395 30.5549C27.4082 30.6301 27.4037 30.7073 27.3819 30.7804C27.3601 30.8535 27.3216 30.9205 27.2694 30.9761L26.3591 31.8864C25.5927 32.6551 24.6217 33.1875 23.5614 33.4202C22.5012 33.653 21.3965 33.5764 20.3785 33.1995C18.1837 32.378 16.1906 31.0955 14.5335 29.4384C12.8764 27.7813 11.5938 25.7881 10.7723 23.5933C10.3932 22.5762 10.3139 21.4717 10.5439 20.4109C10.7739 19.35 11.3036 18.3775 12.0699 17.6088Z" fill="#86868B"/>
<path d="M24.5702 20.3707C24.8232 20.3758 25.068 20.2812 25.2519 20.1073L27.1073 18.2519C27.1973 18.1619 27.2687 18.055 27.3175 17.9374C27.3662 17.8198 27.3913 17.6937 27.3913 17.5663C27.3913 17.439 27.3662 17.3129 27.3175 17.1953C27.2687 17.0777 27.1973 16.9708 27.1073 16.8807C27.0173 16.7907 26.9104 16.7193 26.7927 16.6706C26.6751 16.6218 26.549 16.5968 26.4217 16.5968C26.2944 16.5968 26.1683 16.6218 26.0506 16.6706C25.933 16.7193 25.8261 16.7907 25.7361 16.8807L23.8652 18.7206C23.7294 18.8561 23.6369 19.0288 23.5994 19.2168C23.5619 19.4049 23.5811 19.5999 23.6545 19.7771C23.728 19.9542 23.8523 20.1056 24.0119 20.212C24.1715 20.3183 24.359 20.3749 24.5508 20.3746L24.5702 20.3707Z" fill="#86868B"/>
<path d="M25.376 23.2913C25.3623 23.5476 25.4509 23.7988 25.6223 23.9898C25.7937 24.1808 26.0339 24.296 26.2901 24.31L28.6568 24.4417H28.7111C28.9679 24.4489 29.2171 24.3538 29.4037 24.1772C29.5904 24.0007 29.6994 23.7573 29.7065 23.5004C29.7137 23.2436 29.6186 22.9944 29.4421 22.8078C29.2656 22.6211 29.0221 22.5121 28.7653 22.505L26.3986 22.3733C26.1413 22.3595 25.8891 22.4485 25.6973 22.6206C25.5056 22.7928 25.39 23.034 25.376 23.2913Z" fill="#86868B"/>
<path d="M20.6267 18.5964H20.681C20.9372 18.5824 21.1774 18.4672 21.3488 18.2762C21.5203 18.0852 21.6088 17.8339 21.5951 17.5777L21.4634 15.211C21.4563 15.0838 21.4242 14.9593 21.3689 14.8445C21.3137 14.7298 21.2364 14.627 21.1414 14.5421C21.0465 14.4572 20.9357 14.3919 20.8155 14.3498C20.6953 14.3077 20.568 14.2897 20.4408 14.2968C20.3136 14.304 20.1891 14.3361 20.0744 14.3913C19.9596 14.4466 19.8568 14.5239 19.7719 14.6188C19.6871 14.7138 19.6217 14.8245 19.5796 14.9447C19.5375 15.0649 19.5195 15.1923 19.5267 15.3194L19.6584 17.6861C19.6732 17.9327 19.7817 18.1644 19.9617 18.3336C20.1418 18.5028 20.3797 18.5968 20.6267 18.5964Z" fill="#86868B"/>
</svg>
