<svg width="346" height="260" viewBox="0 0 346 260" fill="none" xmlns="http://www.w3.org/2000/svg">
<path d="M77.8719 29.9385C-30.6652 51.7942 9.18617 122.63 42.679 155.316C58.3203 185.888 112.759 247.422 205.383 248.983C321.162 250.934 361.185 84.3934 325.243 41.1591C291.58 0.666999 213.543 2.61889 77.8719 29.9385Z" fill="#EBEAF6"/>
<path d="M306.384 138.301H194.397C191.084 138.301 188.397 140.987 188.397 144.301V232.678C188.397 235.991 191.084 238.678 194.397 238.678H306.384C309.698 238.678 312.384 235.991 312.384 232.678V144.301C312.384 140.987 309.698 138.301 306.384 138.301Z" fill="white"/>
<path fill-rule="evenodd" clip-rule="evenodd" d="M224.207 184.337H204.793V226.496H224.207V184.337ZM300.364 186.337H280.949V226.496H300.364V186.337ZM274.979 175.089H255.563V226.496H274.979V175.089ZM249.593 160.694H230.177V226.496H249.593V160.694ZM294.901 179.724H286.16V184.499H294.901V179.724ZM218.497 177.869H209.756V182.641H218.497V177.869ZM269.642 168.931H260.901V173.706H269.642V168.931ZM243.942 154.206H235.203V158.981H243.942V154.206Z" fill="#D8D8D8"/>
<g opacity="0.6">
<path fill-rule="evenodd" clip-rule="evenodd" d="M241.347 39.2531C241.18 38.8345 241.082 38.3808 241.064 37.9051C240.983 35.6754 242.726 33.7992 244.956 33.7177C247.185 33.6362 249.062 35.3802 249.143 37.6098C249.225 39.8393 247.48 41.7158 245.251 41.7972C244.709 41.8171 244.189 41.7289 243.708 41.5525L205.006 90.3053C205.284 90.8286 205.452 91.4214 205.475 92.0533C205.556 94.283 203.812 96.1593 201.583 96.2407C199.353 96.3222 197.477 94.5782 197.396 92.3486C197.392 92.2383 197.391 92.1289 197.397 92.0204L193.448 89.4887C192.783 90.0453 191.936 90.3935 191.003 90.4276C190.551 90.4441 190.114 90.3857 189.704 90.2638L150.828 145.583C150.967 145.969 151.049 146.381 151.065 146.812C151.146 149.04 149.403 150.917 147.173 150.999C144.943 151.08 143.068 149.336 142.986 147.107C142.978 146.889 142.987 146.675 143.012 146.468L116.914 122.155C116.363 122.472 115.728 122.664 115.048 122.689C114.642 122.704 114.246 122.658 113.872 122.558L72.5242 192.413C72.9039 193.003 73.1351 193.699 73.1626 194.451C73.2441 196.68 71.5001 198.557 69.2705 198.638C67.0408 198.72 65.1645 196.975 65.0831 194.746C65.0015 192.516 66.7455 190.639 68.9751 190.558C69.2501 190.548 69.5195 190.566 69.7812 190.609L111.293 120.475C111.037 119.969 110.883 119.4 110.861 118.797C110.78 116.567 112.524 114.69 114.753 114.609C116.983 114.527 118.86 116.272 118.942 118.502C118.954 118.838 118.923 119.167 118.858 119.483L144.759 143.613C145.365 143.2 146.091 142.949 146.878 142.92C147.45 142.899 147.998 142.997 148.499 143.194L187.202 88.1204C186.973 87.6384 186.835 87.1026 186.815 86.5355C186.733 84.3058 188.478 82.4295 190.708 82.348C192.937 82.2665 194.814 84.0105 194.895 86.2401C194.899 86.3344 194.899 86.428 194.896 86.521L198.876 89.0727C199.536 88.5321 200.37 88.1947 201.288 88.1612C201.681 88.1468 202.063 88.1893 202.426 88.2809L241.347 39.2531Z" fill="#A3A3A3"/>
</g>
<path d="M155.113 10H38.6494C35.3357 10 32.6494 12.6863 32.6494 16V101.041C32.6494 104.355 35.3357 107.041 38.6494 107.041H155.113C158.427 107.041 161.113 104.355 161.113 101.041V16C161.113 12.6863 158.427 10 155.113 10Z" fill="white"/>
<path fill-rule="evenodd" clip-rule="evenodd" d="M58.4227 26.3992H49.6816V97.589H58.4227V26.3992ZM75.7664 20.0449H67.0256V97.5514H75.7664V20.0449ZM93.1104 36.3104H84.3695V97.5103H93.1104V36.3104ZM110.455 26.2134H101.713V97.4656H110.455V26.2134ZM127.799 46.0106H119.058V97.417H127.799V46.0106ZM145.141 60.3792H136.4V97.3641H145.141V60.3792Z" fill="#D8D8D8"/>
<path fill-rule="evenodd" clip-rule="evenodd" d="M288.443 70H271.557V46.433H260L280 16L300 46.433H288.443V70Z" fill="url(#paint0_linear_1798_150143)"/>
<path fill-rule="evenodd" clip-rule="evenodd" d="M150.557 170L167.443 170L167.443 193.567L179 193.567L159 224L139 193.567L150.557 193.567L150.557 170Z" fill="url(#paint1_linear_1798_150143)"/>
<g opacity="0.7">
<path d="M230.75 151.984C246.825 151.984 259.857 138.728 259.857 122.377C259.857 106.025 246.825 92.7695 230.75 92.7695C214.674 92.7695 201.643 106.025 201.643 122.377C201.643 138.728 214.674 151.984 230.75 151.984Z" fill="#EBEAF6"/>
</g>
<path fill-rule="evenodd" clip-rule="evenodd" d="M223.912 102.125L222.848 102.509L222.314 100.994L224.17 100.325C224.61 100.167 225.084 100.378 225.232 100.796L226.135 103.358C227.785 102.842 229.432 102.529 231.073 102.419C233.171 102.277 235.263 102.466 237.347 102.984C237.582 103.042 237.774 103.199 237.875 103.41C237.974 103.623 237.972 103.87 237.868 104.088L235.543 108.928C235.367 109.292 234.951 109.49 234.556 109.395C232.509 108.905 230.414 108.913 228.272 109.415L231.282 117.951C239.495 116.738 244.413 118.914 246.158 124.195C247.118 127.059 246.84 129.819 245.332 132.462C243.977 134.939 241.74 137.026 238.601 138.703L240.153 143.104C240.301 143.522 240.065 143.988 239.626 144.147L237.803 144.804L237.27 143.29L238.3 142.919L236.781 138.613C236.646 138.229 236.832 137.799 237.215 137.61C240.339 136.061 242.561 134.116 243.866 131.734C245.144 129.493 245.374 127.163 244.563 124.741C242.992 119.99 238.368 118.396 230.82 119.656C230.422 119.721 230.042 119.506 229.914 119.143L226.392 109.155C226.318 108.946 226.339 108.714 226.448 108.513C226.557 108.313 226.745 108.161 226.969 108.097C229.478 107.358 231.931 107.219 234.323 107.675L235.924 104.342C234.33 104.03 232.732 103.925 231.129 104.035C229.377 104.152 227.623 104.521 225.861 105.14C225.425 105.294 224.955 105.082 224.808 104.666L223.912 102.125ZM236.441 132.578C237.476 131.828 238.154 131.055 238.436 130.233C238.607 129.706 238.675 129.158 238.64 128.591L240.314 128.442C240.357 129.21 240.262 129.952 240.028 130.679C239.564 132.026 238.383 133.327 236.417 134.52C236.2 134.651 235.936 134.684 235.699 134.607C235.463 134.53 235.278 134.352 235.198 134.124L233.31 128.77L234.896 128.198L236.441 132.578ZM220.204 114.29C220.241 113.505 220.403 112.804 220.681 112.188C220.688 112.173 220.697 112.157 220.703 112.141C221.373 110.87 222.365 109.917 223.677 109.286C223.892 109.182 224.142 109.171 224.36 109.253C224.579 109.336 224.747 109.507 224.822 109.721L226.368 114.105L224.782 114.677L223.562 111.22C222.997 111.639 222.544 112.169 222.203 112.81C222.007 113.253 221.902 113.756 221.876 114.318C221.876 114.333 221.874 114.348 221.872 114.363C221.811 114.958 221.918 115.614 222.171 116.331L220.585 116.903C220.25 115.953 220.129 115.081 220.204 114.29Z" fill="#8C81D1"/>
<path fill-rule="evenodd" clip-rule="evenodd" d="M222.855 119.7C221.771 119.129 220.995 118.217 220.547 116.947L222.138 116.375C222.445 117.245 222.96 117.882 223.705 118.272L223.731 118.286C224.327 118.627 225.144 118.772 226.18 118.757L224.754 114.718L226.345 114.145L228.132 119.209C228.215 119.444 228.178 119.707 228.034 119.922C227.89 120.134 227.652 120.277 227.393 120.303C225.385 120.503 223.877 120.277 222.855 119.7Z" fill="#8C81D1"/>
<path fill-rule="evenodd" clip-rule="evenodd" d="M233.602 124.56L234.883 128.189L233.293 128.761L231.687 124.212C231.608 123.99 231.636 123.742 231.762 123.534C231.89 123.326 232.102 123.178 232.344 123.131C234.686 122.677 236.408 122.825 237.522 123.453L237.547 123.469C238.656 124.151 239.437 125.12 239.882 126.381C240.131 127.086 240.272 127.771 240.311 128.433L238.634 128.582C238.605 128.056 238.49 127.513 238.292 126.953C237.972 126.047 237.418 125.348 236.626 124.855C235.927 124.467 234.918 124.389 233.602 124.56Z" fill="#8C81D1"/>
<path fill-rule="evenodd" clip-rule="evenodd" d="M228.49 125.454C220.576 126.546 215.877 124.399 214.268 119.297C213.261 116.235 213.444 113.49 214.763 111.064C215.97 108.843 218.154 106.876 221.351 105.198L220.424 102.566C220.277 102.148 220.512 101.681 220.949 101.524L222.247 101.055L222.781 102.569L222.276 102.751L223.171 105.291C223.306 105.675 223.119 106.108 222.733 106.296C219.563 107.854 217.384 109.664 216.236 111.776C215.119 113.832 215.011 116.159 215.867 118.765C217.308 123.335 221.719 124.898 228.961 123.758C229.356 123.696 229.732 123.91 229.859 124.269L233.546 134.732C233.622 134.946 233.597 135.182 233.485 135.385C233.37 135.589 233.174 135.738 232.944 135.799C230.897 136.337 229.067 136.519 227.46 136.357C226.068 136.276 224.76 136.024 223.532 135.601L221.356 139.139C223.173 139.603 225.093 139.854 227.113 139.897C229.461 139.925 231.782 139.54 234.078 138.744C234.515 138.594 234.982 138.805 235.127 139.219L236.644 143.523L237.183 143.328L237.716 144.84L236.384 145.321C235.946 145.479 235.473 145.269 235.326 144.851L233.801 140.523C231.566 141.213 229.309 141.542 227.025 141.515C224.464 141.462 222.064 141.092 219.816 140.409C219.581 140.337 219.392 140.163 219.308 139.936C219.221 139.711 219.248 139.455 219.379 139.242L222.479 134.202C222.698 133.844 223.156 133.692 223.541 133.85C224.801 134.363 226.168 134.659 227.638 134.743L227.677 134.746C228.868 134.868 230.196 134.768 231.661 134.453L228.49 125.454Z" fill="#8C81D1"/>
<path fill-rule="evenodd" clip-rule="evenodd" d="M236.889 155.692C234.727 156.145 232.486 156.383 230.192 156.383C228.29 156.383 226.75 154.814 226.75 152.882C226.75 150.949 228.29 149.38 230.192 149.38C244.647 149.38 256.383 137.443 256.383 122.74C256.383 108.036 244.647 96.0984 230.192 96.0984C228.29 96.0984 226.75 94.5296 226.75 92.597C226.75 90.6647 228.29 89.0957 230.192 89.0957C248.447 89.0957 263.267 104.171 263.267 122.74C263.267 136.502 255.124 148.345 243.477 153.554L265.055 205.33C265.797 207.109 264.98 209.166 263.231 209.919C261.482 210.674 259.459 209.842 258.717 208.063L236.889 155.692Z" fill="#6638B6"/>
<path fill-rule="evenodd" clip-rule="evenodd" d="M230.192 149.38C215.737 149.38 204.002 137.442 204.002 122.739C204.002 108.036 215.737 96.0984 230.192 96.0984C232.092 96.0984 233.635 94.5293 233.635 92.597C233.635 90.6645 232.092 89.0957 230.192 89.0957C211.938 89.0957 197.117 104.171 197.117 122.739C197.117 141.307 211.938 156.382 230.192 156.382C232.092 156.382 233.635 154.813 233.635 152.881C233.635 150.949 232.092 149.38 230.192 149.38Z" fill="#6638B6"/>
<path fill-rule="evenodd" clip-rule="evenodd" d="M276.536 167.101C276.536 167.101 274.683 160.024 275.296 151.002C276.161 138.311 284.145 127.269 295.797 122.647C307.447 118.027 320.673 120.657 329.754 129.4C331.852 131.429 333.764 133.812 335.374 136.615C343.282 150.402 345.846 165.6 339.186 180.616C339.186 180.616 343.478 209.29 337.295 229.959C334.175 240.34 325.324 247.868 314.729 249.155C314.372 249.203 314.013 249.245 313.649 249.288C303.972 250.464 294.48 245.953 289.153 237.653C278.782 221.49 262.829 196.631 262.829 196.631C262.829 196.631 253.802 197.429 250.315 197.738C249.067 197.852 247.95 196.957 247.767 195.696C247.666 194.941 247.899 194.11 248.959 193.405C248.959 193.405 247.838 193.396 246.961 193.18C245.575 192.84 245.02 191.635 244.96 190.343C244.904 189.129 245.257 187.726 246.881 186.903C244.835 187.295 242.852 185.967 242.4 183.901C242.38 183.818 242.363 183.739 242.348 183.665C242.182 182.914 242.288 182.128 242.643 181.45C242.978 180.804 243.557 180.098 244.547 179.671C244.547 179.671 243.583 179.367 242.542 179.038C241.038 178.564 240.012 177.15 240.012 175.548V175.546C240.012 174.126 240.855 172.843 242.148 172.301C244.956 171.117 249.542 169.187 249.542 169.187C249.542 169.187 243.635 161.523 246.092 159.271C246.528 158.871 247.503 158.639 250.368 161.12C251.451 162.057 255.652 163.254 260.968 162.512C260.968 162.512 267.924 162.468 276.536 167.101ZM282.93 84.6367C291.967 84.6367 299.306 92.1009 299.306 101.295C299.306 110.489 291.967 117.953 282.93 117.953C273.889 117.953 266.551 110.489 266.551 101.295C266.551 92.1009 273.889 84.6367 282.93 84.6367Z" fill="#FFCCB3"/>
<path fill-rule="evenodd" clip-rule="evenodd" d="M262.273 196.679L265.862 196.268C266.333 196.213 266.759 196.559 266.812 197.041C266.866 197.52 266.526 197.953 266.053 198.008L263.871 198.257L262.828 196.629L262.273 196.679ZM245.398 192.01L255.765 191.036C256.238 190.99 256.658 191.344 256.701 191.826C256.746 192.307 256.398 192.734 255.924 192.778L248.909 193.436C248.924 193.425 248.941 193.414 248.958 193.404C248.958 193.404 247.837 193.395 246.96 193.178C246.217 192.996 245.714 192.568 245.398 192.01ZM243.539 185.922C243.616 185.876 243.705 185.841 243.797 185.819L253.401 183.714C253.863 183.611 254.322 183.913 254.423 184.385C254.522 184.856 254.227 185.322 253.762 185.425L246.772 186.959C246.807 186.939 246.843 186.919 246.88 186.902C245.632 187.141 244.408 186.74 243.539 185.922ZM241.803 178.709L252.048 175.499C252.502 175.356 252.983 175.615 253.123 176.076C253.263 176.538 253.007 177.028 252.553 177.17L244.462 179.707C244.49 179.694 244.518 179.68 244.546 179.67C244.546 179.67 243.582 179.365 242.541 179.037C242.28 178.954 242.033 178.845 241.803 178.709ZM248.502 167.726L252.086 166.218C252.525 166.032 253.029 166.244 253.211 166.69C253.392 167.139 253.183 167.651 252.745 167.835L249.539 169.183C249.511 169.146 249.077 168.579 248.502 167.726Z" fill="#E9AD8F"/>
<path fill-rule="evenodd" clip-rule="evenodd" d="M276.455 166.772C276.104 165.28 274.76 158.884 275.295 151.003C276.16 138.313 284.144 127.271 295.796 122.649C307.446 118.028 320.672 120.658 329.753 129.402C331.851 131.431 333.763 133.814 335.373 136.617C343.281 150.404 345.845 165.602 339.185 180.618C339.185 180.618 343.477 209.292 337.294 229.961C334.174 240.342 325.323 247.87 314.728 249.157C314.371 249.205 314.012 249.246 313.648 249.29C303.971 250.465 294.479 245.955 289.152 237.655L282.051 226.588L306.196 197.886C293.574 177.9 279.826 168.805 276.455 166.772Z" fill="#8C81D1"/>
<path fill-rule="evenodd" clip-rule="evenodd" d="M306.103 197.739C306.146 197.78 306.187 197.831 306.221 197.883L321.817 221.828C322.079 222.233 321.972 222.776 321.576 223.043C321.18 223.31 320.646 223.198 320.384 222.795L305.047 199.249L306.196 197.883L306.103 197.739ZM339.335 181.722L339.374 182.033L339.327 182.134C339.327 182.134 335.883 162.629 330.941 147.718C330.822 147.409 330.96 147.061 331.253 146.921C331.545 146.779 331.896 146.893 332.057 147.18C334.688 152.377 338.296 160.156 342.296 170.625C342.238 170.936 342.177 171.247 342.113 171.555L342.111 171.566L342.081 171.711L342.078 171.724L342.046 171.871L342.044 171.879C341.979 172.188 341.908 172.496 341.835 172.803L341.833 172.814L341.799 172.954L341.794 172.976L341.762 173.111L341.754 173.138L341.721 173.271L341.715 173.295L341.68 173.433L341.678 173.442C341.627 173.643 341.573 173.844 341.519 174.048L341.515 174.061L341.48 174.19L341.47 174.227L341.437 174.346L341.424 174.392L341.392 174.508L341.379 174.556L341.347 174.669L341.334 174.718L341.3 174.834L341.289 174.873L341.252 174.996C341.237 175.048 341.222 175.101 341.205 175.153L341.164 175.289L341.158 175.311L341.125 175.42L341.108 175.477L341.076 175.578L341.057 175.643L341.026 175.74L341.005 175.81L340.975 175.904L340.951 175.976L340.921 176.07L340.897 176.142L340.867 176.234L340.844 176.309L340.813 176.4L340.783 176.488L340.762 176.558L340.734 176.637L340.706 176.722L340.678 176.805L340.648 176.891L340.62 176.972L340.59 177.057L340.562 177.138L340.532 177.225L340.504 177.304L340.471 177.394L340.443 177.471L340.411 177.565L340.385 177.637L340.344 177.746L340.323 177.803L340.263 177.967L340.241 178.022L340.2 178.134L340.174 178.201L340.138 178.3L340.11 178.372L340.073 178.468L340.045 178.541L340.009 178.637L339.981 178.709L339.942 178.808L339.914 178.875L339.871 178.983L339.847 179.042L339.792 179.18L339.781 179.208L339.712 179.374L339.693 179.425L339.643 179.541L339.617 179.606L339.574 179.709L339.546 179.777L339.503 179.875L339.475 179.946L339.432 180.046L339.402 180.114L339.359 180.217L339.331 180.28L339.282 180.394L339.258 180.447L339.185 180.615L339.198 180.703L339.2 180.731L339.213 180.812L339.217 180.852L339.234 180.967L339.241 181.011L339.26 181.167L339.267 181.213L339.295 181.41L339.299 181.449L339.331 181.698L339.335 181.722ZM284.607 172.728C284.607 172.728 283.787 166.284 282.683 147.344C282.657 146.921 282.944 146.79 283.101 146.755C283.38 146.692 283.593 146.875 283.619 147.037L288.234 175.945C286.958 174.753 285.745 173.683 284.607 172.728Z" fill="#3C2C84"/>
<path fill-rule="evenodd" clip-rule="evenodd" d="M270.173 90.854C273.176 87.0636 277.776 84.6367 282.931 84.6367C291.968 84.6367 299.307 92.1009 299.307 101.295C299.307 106.497 296.957 111.145 293.281 114.2L287.565 108.425C288.173 108.381 288.802 108.217 289.41 107.922C291.564 106.879 292.117 104.137 291.289 102.367C290.458 100.597 288.038 100.007 285.886 101.05C284.49 101.726 284.066 103.384 283.804 104.625L270.173 90.854Z" fill="#1D1D1F"/>
<path d="M125.923 136.874C141.999 136.874 155.03 123.619 155.03 107.267C155.03 90.9157 141.999 77.6602 125.923 77.6602C109.848 77.6602 96.8164 90.9157 96.8164 107.267C96.8164 123.619 109.848 136.874 125.923 136.874Z" fill="#EBEAF6"/>
<path fill-rule="evenodd" clip-rule="evenodd" d="M97.5565 100.617C97.7671 100.521 98.0242 100.466 98.3351 100.521C98.9478 100.631 99.3832 101.165 99.4011 101.774C99.6048 102.141 100.155 103.102 100.81 104.008C102.359 106.148 104.971 109.221 108.587 112.357C110.244 105.148 113.415 99.1368 116.922 94.317C111.743 90.2528 108.895 86.5092 108.316 85.7943C107.862 85.235 107.942 84.4069 108.49 83.9458C109.041 83.4849 109.854 83.5646 110.308 84.1237C110.861 84.8054 113.574 88.3693 118.509 92.2378C125.235 83.8486 132.519 79.6722 132.519 79.6722C133.139 79.3164 133.926 79.5398 134.277 80.1711C134.627 80.8023 134.408 81.6038 133.786 81.9597C133.786 81.9597 126.934 85.8895 120.581 93.7813C125.501 97.261 132.192 100.714 140.699 102.317C141.613 96.0049 141.28 90.1401 140.636 85.7932C140.531 85.0765 141.017 84.4073 141.721 84.2992C142.426 84.1913 143.085 84.6855 143.19 85.4021C143.865 89.9675 144.203 96.1119 143.244 102.733C146.555 103.19 150.122 103.365 153.945 103.16C154.261 103.143 154.553 103.243 154.788 103.422C154.87 104.059 154.93 104.702 154.973 105.35C154.751 105.6 154.437 105.764 154.08 105.783C150.053 105.998 146.294 105.812 142.803 105.326C141.553 111.73 139.014 118.435 134.354 124.489C139.04 125.18 144.165 125.222 149.711 124.325C148.988 125.366 148.198 126.36 147.353 127.297C141.968 127.896 136.983 127.658 132.412 126.833C129.286 130.338 125.364 133.566 120.467 136.312C120.45 136.323 120.431 136.332 120.411 136.341C119.882 136.238 119.359 136.12 118.841 135.989C118.793 135.93 118.75 135.866 118.714 135.796C118.37 135.161 118.598 134.363 119.221 134.013C123.307 131.719 126.674 129.071 129.436 126.2C121.773 124.327 115.386 120.84 110.358 117.102C109.794 121.354 109.796 125.994 110.588 131.023C110.657 131.465 110.5 131.892 110.203 132.181C109.407 131.66 108.639 131.102 107.899 130.507C107.124 124.973 107.253 119.891 108.015 115.266C101.913 110.229 98.2466 105.139 97.2163 103.221C97.18 103.153 97.1464 103.088 97.1152 103.025C97.2303 102.211 97.3779 101.407 97.5565 100.617ZM118.989 95.8628C115.472 100.705 112.309 106.818 110.835 114.207C116.055 118.277 122.963 122.167 131.435 123.964C136.357 118.015 138.988 111.311 140.255 104.91C131.245 103.22 124.172 99.5495 118.989 95.8628ZM98.3241 103.109C98.2638 103.12 98.2025 103.126 98.1406 103.127C98.0786 103.129 98.0158 103.125 97.9525 103.117C98.0872 103.135 98.2107 103.131 98.3241 103.109Z" fill="#8C81D1"/>
<path fill-rule="evenodd" clip-rule="evenodd" d="M26.5649 163.185C26.5649 163.185 -16.2111 128.758 13.5019 87.9818C16.6645 83.6422 35.8547 58.3467 63.1247 41.2016C64.1894 40.53 65.56 40.6416 66.5066 41.4766C67.1101 42.0224 67.5025 42.8557 67.1133 44.1353C67.1133 44.1353 71.3337 43.1995 71.0428 47.3237C71.0428 47.3237 75.9847 45.9756 76.1564 51.1539C76.1564 51.1539 84.3267 40.9703 87.8861 36.5334C88.8192 35.3708 90.4499 35.0812 91.7147 35.8542C91.715 35.8544 91.7149 35.8544 91.7152 35.8544C92.2891 36.2052 92.7024 36.7735 92.864 37.4344C93.0256 38.0952 92.9221 38.7944 92.5763 39.3776C77.3885 64.9636 61.2437 88.4377 45.0506 111.805C45.0506 111.805 58.4082 125.55 65.2915 130.498C68.0866 132.505 96.0173 150.256 100.056 159.977C100.056 159.977 100.397 157.749 100.785 155.213C101.457 150.814 104.644 147.252 108.883 146.153C111.757 145.409 114.425 144.718 114.425 144.718C114.425 144.718 119.192 143.891 123.252 143.923C125.911 143.943 128.26 145.683 129.099 148.248C129.484 149.431 129.323 150.729 128.656 151.775C128.28 152.368 127.946 152.889 127.946 152.889C127.946 152.889 128.903 153.219 129.792 153.526C130.739 153.852 131.502 154.572 131.896 155.506C132.662 157.327 132.333 159.434 131.048 160.925C130.648 161.391 130.351 161.734 130.351 161.734H130.642C132.156 161.734 133.518 162.671 134.084 164.102C134.861 166.067 134.232 168.317 132.559 169.575C132.143 169.886 131.855 170.105 131.855 170.105C132.38 169.923 132.871 170.291 133.215 171.133C133.897 172.798 133.271 174.722 131.786 175.709C129.471 177.247 126.416 179.278 126.416 179.278C125.73 193.64 124.024 209.131 116.01 227.594C113.592 233.146 108.835 237.284 103.07 238.853C103.065 238.858 103.061 238.858 103.057 238.86C90.9876 242.142 78.3392 236.166 73.0216 224.669C70.4688 219.143 67.7424 212.333 65.2915 204.313C65.2915 204.313 55.1457 205.661 45.0506 200.461C32.923 194.216 20.8689 180.057 26.5649 163.185Z" fill="url(#paint2_linear_1798_150143)"/>
<path fill-rule="evenodd" clip-rule="evenodd" d="M103.78 198.027L101.696 221.976C101.654 222.457 102.004 222.884 102.477 222.925C102.95 222.969 103.367 222.612 103.41 222.131L105.493 198.182C105.536 197.7 105.185 197.274 104.712 197.232C104.239 197.188 103.821 197.545 103.78 198.027Z" fill="#E9AD8F"/>
<path fill-rule="evenodd" clip-rule="evenodd" d="M131.873 170.098C132.394 169.932 132.876 170.302 133.216 171.133C133.235 171.179 133.252 171.225 133.27 171.271C131.68 172.282 128.222 174.278 125.064 174.722C124.593 174.788 124.159 174.453 124.094 173.976C124.027 173.497 124.356 173.055 124.828 172.989C127.444 172.621 130.275 171.083 131.873 170.098ZM130.354 161.734H130.643C131.344 161.734 132.013 161.936 132.585 162.295C131.637 162.999 127.857 165.678 123.896 166.636C123.434 166.748 122.971 166.457 122.859 165.986C122.749 165.518 123.035 165.045 123.498 164.934C126.202 164.277 128.814 162.754 130.354 161.734ZM127.958 152.894L129.67 153.484C128.093 155.557 125.135 158.638 121.015 159.478C120.551 159.575 120.097 159.266 120.002 158.793C119.91 158.318 120.211 157.857 120.678 157.763C124.027 157.078 126.501 154.705 127.958 152.894Z" fill="#E9AD8F"/>
<path fill-rule="evenodd" clip-rule="evenodd" d="M116.442 147.124C116.442 147.124 113.506 147.783 110.41 147.334C109.939 147.266 109.504 147.601 109.435 148.078C109.369 148.557 109.698 148.999 110.167 149.067C113.577 149.562 116.812 148.835 116.812 148.835C117.275 148.73 117.57 148.262 117.466 147.791C117.365 147.319 116.905 147.021 116.442 147.124Z" fill="#E9AD8F"/>
<path fill-rule="evenodd" clip-rule="evenodd" d="M75.6818 48.9953C75.9514 49.5437 76.1271 50.2495 76.1573 51.1546L77.4561 49.5356C77.4309 49.5823 77.4008 49.6271 77.3663 49.6698L74.1464 53.6359C73.8439 54.0084 73.3011 54.0611 72.9349 53.7534C72.5688 53.4458 72.5169 52.8936 72.8194 52.5212L75.6818 48.9953ZM70.608 45.1671C70.9284 45.6555 71.1121 46.3468 71.0439 47.3208L69.0476 49.6457C68.7352 50.0096 68.1912 50.0471 67.8334 49.7293C67.4756 49.4116 67.4388 48.8581 67.7512 48.4942L70.608 45.1671ZM66.9053 41.9336C67.2564 42.459 67.4078 43.1704 67.1142 44.1359H67.1144C66.037 45.169 64.7944 46.3678 64.7944 46.3678C64.4497 46.7002 63.9045 46.6856 63.5778 46.335C63.251 45.9844 63.2654 45.4299 63.61 45.0975C63.61 45.0975 65.8105 42.9752 66.9053 41.9336Z" fill="#E9AD8F"/>
<path fill-rule="evenodd" clip-rule="evenodd" d="M45.0506 111.804C45.0506 111.804 39.3714 106.1 36.0078 102.721C35.7767 102.489 35.7416 102.127 35.9238 101.855C36.1059 101.583 36.4548 101.477 36.7573 101.602C41.1964 103.44 48.7278 106.557 48.7278 106.557L45.0506 111.804Z" fill="#E9AD8F"/>
<path fill-rule="evenodd" clip-rule="evenodd" d="M8.32227 139.733C9.59631 135.755 14.0432 126.82 28.1646 127.66C28.1646 127.66 33.1732 112.805 49.0099 115.794C53.502 120.249 60.7835 127.26 65.29 130.499C68.0851 132.505 96.0157 150.257 100.055 159.978L100.101 159.673C102.708 167.455 107.442 184.157 105.062 202.23C105.062 202.23 95.6855 208.609 86.5652 200.595C86.5652 200.595 77.9315 212.246 65.4451 204.817C65.3931 204.648 65.3414 204.482 65.29 204.313C65.29 204.313 55.1441 205.661 45.049 200.462C32.9215 194.216 20.8674 180.058 26.5633 163.186C26.5633 163.186 15.271 154.098 8.32227 139.733ZM67.6881 126.625L71.3627 128.951C70.0375 128.336 68.8034 127.553 67.6881 126.625Z" fill="#8C81D1"/>
<path fill-rule="evenodd" clip-rule="evenodd" d="M59.1005 204.349C58.3671 195.587 60.3257 188.462 61.6353 184.829C61.7403 184.575 62.0057 184.435 62.2699 184.49C62.5339 184.544 62.7237 184.781 62.7232 185.054C62.9769 192.177 64.8204 201.773 65.4146 204.712C65.3735 204.579 65.3326 204.447 65.292 204.314C65.292 204.314 62.819 204.642 59.1005 204.349ZM20.6025 157.449C23.7167 153.518 26.7953 150.544 29.6613 148.293C34.0749 144.824 37.9841 143.069 40.7405 142.172C41.0593 142.1 41.384 142.27 41.5117 142.574C41.6395 142.881 41.5341 143.235 41.2613 143.419C32.9224 149.223 28.1666 159.274 26.5573 163.18C26.3996 163.051 23.9096 161.018 20.6025 157.449Z" fill="#3C2C84"/>
<path fill-rule="evenodd" clip-rule="evenodd" d="M113.642 149.154L114.973 139.431C112.898 138.704 110.866 137.755 108.906 136.569C107.284 135.59 106.755 133.446 107.726 131.786C108.7 130.126 110.807 129.575 112.427 130.554C124.772 138.012 140.8 133.809 148.198 121.178C155.594 108.547 151.577 92.2379 139.232 84.7812C137.61 83.8011 137.081 81.6576 138.055 79.9976C139.026 78.3375 141.133 77.7852 142.756 78.7652C158.346 88.1821 163.418 108.778 154.077 124.729C147.153 136.554 134.242 142.528 121.674 140.994L120.808 147.319C119.255 148.073 116.681 149.05 113.642 149.154Z" fill="#6638B6"/>
<path fill-rule="evenodd" clip-rule="evenodd" d="M112.289 130.525C99.9132 123.051 95.8861 106.705 103.302 94.044C110.717 81.3837 126.785 77.1726 139.16 84.6463C140.787 85.6284 142.899 85.0749 143.873 83.4111C144.848 81.7471 144.319 79.5987 142.692 78.6165C127.064 69.1784 106.772 74.4962 97.4076 90.4845C88.043 106.473 93.1287 127.117 108.757 136.555C110.384 137.537 112.495 136.983 113.47 135.32C114.445 133.656 113.915 131.507 112.289 130.525Z" fill="#6638B6"/>
<path d="M78.3795 130.499C87.7256 130.499 95.302 122.792 95.302 113.285C95.302 103.779 87.7256 96.0723 78.3795 96.0723C69.0335 96.0723 61.457 103.779 61.457 113.285C61.457 122.792 69.0335 130.499 78.3795 130.499Z" fill="#FFCCB3"/>
<path fill-rule="evenodd" clip-rule="evenodd" d="M72.4953 120.085C69.4427 120.62 66.1941 120.696 62.8247 120.071C61.9447 117.989 61.457 115.695 61.457 113.285C61.457 103.785 69.0398 96.0723 78.3795 96.0723C85.8244 96.0723 92.1528 100.973 94.4139 107.772C93.7048 111.009 88.38 117.473 77.4415 118.791C77.7954 117.87 77.8242 116.752 77.4435 115.664C76.6961 113.529 74.6523 112.316 72.8823 112.957C71.1124 113.598 70.2822 115.852 71.0296 117.987C71.3361 118.863 71.8609 119.584 72.4953 120.085Z" fill="#1D1D1F"/>
<path d="M79.6709 94C84.6415 94 88.6709 89.9706 88.6709 85C88.6709 80.0294 84.6415 76 79.6709 76C74.7003 76 70.6709 80.0294 70.6709 85C70.6709 89.9706 74.7003 94 79.6709 94Z" fill="#1D1D1F"/>
<defs>
<linearGradient id="paint0_linear_1798_150143" x1="280.022" y1="70.3167" x2="280.022" y2="15.1233" gradientUnits="userSpaceOnUse">
<stop stop-color="#D8D8D8"/>
<stop offset="1" stop-color="#A3A3A3"/>
</linearGradient>
<linearGradient id="paint1_linear_1798_150143" x1="158.978" y1="169.683" x2="158.978" y2="224.877" gradientUnits="userSpaceOnUse">
<stop stop-color="#D8D8D8"/>
<stop offset="1" stop-color="#A3A3A3"/>
</linearGradient>
<linearGradient id="paint2_linear_1798_150143" x1="71.2771" y1="196.675" x2="-12.3057" y2="218.014" gradientUnits="userSpaceOnUse">
<stop stop-color="#FFCCB3"/>
<stop offset="0.47" stop-color="#EDBAA1"/>
<stop offset="1" stop-color="#E3A384"/>
</linearGradient>
</defs>
</svg>
