<svg width="136" height="90" viewBox="0 0 136 90" fill="none" xmlns="http://www.w3.org/2000/svg">
<path d="M108.716 45.6349C106.099 39.5707 101.713 40.1001 99.1319 42.503C95.2661 33.5889 92.0599 21.1656 92.0599 21.1656C89.304 11.9726 78.0744 10.7046 72.0806 10.7046C70.8946 8.69455 69.3588 6.91248 67.5456 5.4424C60.5148 -0.48868 56.1543 2.63695 60.3467 4.57065C64.1523 6.32367 63.1438 10.0674 62.9219 10.7458C61.1554 9.4271 57.9778 7.89282 52.7356 7.95622C43.5388 8.04181 42.2703 13.2565 46.7101 11.9885C49.0696 11.3133 50.6235 12.2357 51.5622 13.2565C48.375 14.8098 45.6636 17.2824 44.4902 21.1815C44.4902 21.1815 41.4457 32.9676 37.7163 41.8182C35.1285 39.4724 30.7996 39.0096 28.2023 45.0168C24.0796 54.5268 30.9741 65.5489 42.5493 74.444C54.1246 83.339 53.3159 87.8055 55.8371 89.1845C58.3583 90.5634 60.9588 84.645 47.9564 72.8146C44.3253 69.4766 42.0832 66.0054 40.7385 62.7054C41.9536 63.0837 43.2176 63.2813 44.4902 63.2919C52.1013 63.3267 53.3699 67.1308 68.275 67.1308C83.1802 67.1308 84.4487 63.3267 92.0599 63.2919C93.5841 63.2786 95.0943 62.9985 96.5219 62.4645C95.228 66.0181 92.9225 69.8284 88.9615 73.4327C75.9591 85.2632 78.5628 91.1848 81.0808 89.8026C83.5988 88.4205 82.7901 83.9571 94.3654 75.0621C105.941 66.1671 112.822 55.1481 108.716 45.6349Z" fill="#8C81D1"/>
<path d="M50.3477 49.1881C50.3477 49.1881 51.299 52.7131 54.1532 53.531C57.0074 54.3489 59.091 50.4941 58.999 48.8711C59.0085 48.8711 54.778 51.6892 50.3477 49.1881Z" fill="#38327C"/>
<path d="M86.1919 49.1881C86.1919 49.1881 85.2754 52.7131 82.5576 53.531C79.8398 54.3489 77.8545 50.4941 77.9402 48.8711C77.9402 48.8711 81.9709 51.6892 86.1919 49.1881Z" fill="#38327C"/>
<path opacity="0.77" d="M52.2622 18.7884C53.313 18.7884 54.1649 17.9368 54.1649 16.8864C54.1649 15.8359 53.313 14.9844 52.2622 14.9844C51.2113 14.9844 50.3594 15.8359 50.3594 16.8864C50.3594 17.9368 51.2113 18.7884 52.2622 18.7884Z" fill="#A9A6CE"/>
<path opacity="0.77" d="M107.932 58.6082C108.709 56.9422 108.696 55.2917 107.902 54.9217C107.108 54.5518 105.835 55.6025 105.058 57.2685C104.28 58.9346 104.294 60.5851 105.087 60.955C105.881 61.325 107.155 60.2743 107.932 58.6082Z" fill="#A9A6CE"/>
<path opacity="0.77" d="M40.165 70.8839C40.846 70.3336 38.9641 66.8776 35.9615 63.1646C32.959 59.4517 29.9728 56.8879 29.2918 57.4382C28.6107 57.9885 30.4926 61.4445 33.4952 65.1574C36.4978 68.8704 39.4839 71.4342 40.165 70.8839Z" fill="#A9A6CE"/>
<path d="M54.6371 52.5479C57.0892 52.5479 59.0769 50.5609 59.0769 48.1099C59.0769 45.6588 57.0892 43.6719 54.6371 43.6719C52.185 43.6719 50.1973 45.6588 50.1973 48.1099C50.1973 50.5609 52.185 52.5479 54.6371 52.5479Z" fill="white"/>
<path d="M82.0703 52.5483C84.4348 52.5483 86.3516 50.6323 86.3516 48.2688C86.3516 45.9053 84.4348 43.9893 82.0703 43.9893C79.7059 43.9893 77.7891 45.9053 77.7891 48.2688C77.7891 50.6323 79.7059 52.5483 82.0703 52.5483Z" fill="white"/>
<path opacity="0.77" d="M49.0901 20.373C49.0901 20.373 45.6017 27.0301 45.9188 31.7851L49.0901 20.373Z" fill="#A9A6CE"/>
<path opacity="0.77" fill-rule="evenodd" clip-rule="evenodd" d="M49.0899 20.3726C46.597 19.0663 46.5968 19.0667 46.5965 19.0672L46.5946 19.0707L46.591 19.0777L46.5801 19.0987C46.5712 19.116 46.559 19.1396 46.5439 19.1693C46.5136 19.2287 46.4712 19.3125 46.4186 19.4187C46.3135 19.6309 46.1671 19.9331 45.994 20.3084C45.6489 21.0567 45.1923 22.1074 44.7445 23.3222C43.8867 25.6497 42.9103 28.9717 43.1104 31.9719C43.2138 33.5229 44.5549 34.6963 46.1059 34.5929C47.6568 34.4894 48.8302 33.1483 48.7268 31.5974C48.6097 29.8426 49.219 27.4586 50.0261 25.2688C50.4108 24.225 50.8064 23.3143 51.1055 22.6658C51.2545 22.3427 51.3782 22.0877 51.4626 21.9172C51.5048 21.8321 51.5371 21.7682 51.5577 21.7278C51.568 21.7076 51.5754 21.6932 51.5797 21.685L51.5832 21.6782C52.3039 20.3016 51.7727 18.601 50.3962 17.8797C49.0194 17.1583 47.3185 17.6895 46.597 19.0663L49.0899 20.3726Z" fill="#A9A6CE"/>
<path d="M37.7329 41.9297C37.7329 41.9297 29.7825 47.8671 35.7953 56.2581C41.8081 64.6491 41.4719 63.0451 41.4719 63.0451C41.4719 63.0451 30.5911 52.489 37.7329 41.9297Z" fill="#38327C"/>
<path d="M99.0958 42.418C99.0958 42.418 107.186 47.7785 101.55 56.0236C95.9149 64.2688 96.1877 62.7282 96.1877 62.7282C96.1877 62.7282 106.558 52.2228 99.0958 42.418Z" fill="#38327C"/>
<path opacity="0.41" d="M52.1159 59.2094C57.8393 59.2094 62.479 54.5697 62.479 48.8464C62.479 43.1231 57.8393 38.4834 52.1159 38.4834C46.3926 38.4834 41.7529 43.1231 41.7529 48.8464C41.7529 54.5697 46.3926 59.2094 52.1159 59.2094Z" fill="#67DAF9" fill-opacity="0.8"/>
<path opacity="0.23" d="M42.9243 43.7637L42.0791 47.4361L61.4353 53.045L62.7047 49.3111L42.9243 43.7637Z" fill="white"/>
<path opacity="0.41" d="M84.1755 59.2094C89.8989 59.2094 94.5385 54.5697 94.5385 48.8464C94.5385 43.1231 89.8989 38.4834 84.1755 38.4834C78.4522 38.4834 73.8125 43.1231 73.8125 48.8464C73.8125 54.5697 78.4522 59.2094 84.1755 59.2094Z" fill="#67DAF9" fill-opacity="0.8"/>
<path opacity="0.23" d="M73.9814 51.2783L76.5722 55.8121L86.9352 58.7267L91.469 56.4598L73.9814 51.2783Z" fill="white"/>
<path fill-rule="evenodd" clip-rule="evenodd" d="M52.1144 38.9715C46.6594 38.9715 42.2372 43.3937 42.2372 48.8488C42.2372 54.3038 46.6594 58.726 52.1144 58.726C57.5695 58.726 61.9917 54.3038 61.9917 48.8488C61.9917 43.3937 57.5695 38.9715 52.1144 38.9715ZM41.2656 48.8488C41.2656 42.8572 46.1228 38 52.1144 38C58.106 38 62.9632 42.8572 62.9632 48.8488C62.9632 54.8404 58.106 59.6976 52.1144 59.6976C46.1228 59.6976 41.2656 54.8404 41.2656 48.8488Z" fill="#484848"/>
<path fill-rule="evenodd" clip-rule="evenodd" d="M84.1808 38.9715C78.7258 38.9715 74.3036 43.3937 74.3036 48.8488C74.3036 54.3038 78.7258 58.726 84.1808 58.726C89.6359 58.726 94.0581 54.3038 94.0581 48.8488C94.0581 43.3937 89.6359 38.9715 84.1808 38.9715ZM73.332 48.8488C73.332 42.8572 78.1892 38 84.1808 38C90.1724 38 95.0296 42.8572 95.0296 48.8488C95.0296 54.8404 90.1724 59.6976 84.1808 59.6976C78.1892 59.6976 73.332 54.8404 73.332 48.8488Z" fill="#484848"/>
<path d="M60.9341 54.5161L63.2852 52.165H66.3649H69.7394H72.8191L75.1702 54.5161L75.5848 54.1015L73.062 51.582H69.7394H66.3649H63.0423L60.5195 54.1015L60.9341 54.5161Z" fill="#484848"/>
<path d="M98.902 41.1484L95.0094 43.0591L93.999 46.4757L94.5593 46.6441L95.5017 43.4574L99.1805 41.6601" fill="#484848"/>
<path d="M37.7785 40L41.6711 41.9107L42.6815 45.3272L42.1213 45.4956L41.1789 42.309L37.5 40.5117" fill="#484848"/>
</svg>
