<svg width="40" height="48" viewBox="0 0 40 48" fill="none" xmlns="http://www.w3.org/2000/svg">
<path d="M32.7 20.6176C33.6364 20.6176 34.3955 19.8382 34.3955 18.8767C34.3955 17.9152 33.6364 17.1358 32.7 17.1358C31.7635 17.1358 31.0044 17.9152 31.0044 18.8767C31.0044 19.8382 31.7635 20.6176 32.7 20.6176Z" fill="#86868B"/>
<path d="M25.8566 20.6176C26.7931 20.6176 27.5522 19.8382 27.5522 18.8767C27.5522 17.9152 26.7931 17.1358 25.8566 17.1358C24.9202 17.1358 24.1611 17.9152 24.1611 18.8767C24.1611 19.8382 24.9202 20.6176 25.8566 20.6176Z" fill="#86868B"/>
<path d="M19.0128 20.6176C19.9493 20.6176 20.7084 19.8382 20.7084 18.8767C20.7084 17.9152 19.9493 17.1358 19.0128 17.1358C18.0764 17.1358 17.3173 17.9152 17.3173 18.8767C17.3173 19.8382 18.0764 20.6176 19.0128 20.6176Z" fill="#86868B"/>
<path d="M33.3516 8H18.3613C15.6484 8 13.3133 9.67931 12.2809 12.0764H6.64889C2.98267 12.0769 0 15.1394 0 18.9037V27.0036C0 30.7679 2.98267 33.8304 6.64889 33.8304H7.60889V39.0873C7.60889 39.4487 7.81644 39.7759 8.13822 39.922C8.25378 39.9745 8.376 40 8.49778 40C8.71467 40 8.92889 39.9183 9.096 39.7627L15.4507 33.8304H21.6356C23.5329 33.8304 25.2831 33.024 26.5347 31.6071L30.9044 35.6863C31.0711 35.8419 31.2853 35.9236 31.5027 35.9236C31.624 35.9236 31.7467 35.898 31.8622 35.8455C32.184 35.6995 32.3916 35.3719 32.3916 35.0109V29.753H33.352C37.0178 29.753 40 26.691 40 22.9272V14.8263C40 11.0625 37.0178 8 33.3516 8ZM21.6356 32.005H15.1067C14.8853 32.005 14.6724 32.0899 14.5089 32.2423L9.38667 37.0238V32.9177C9.38667 32.4139 8.98845 32.005 8.49778 32.005H6.64889C3.96311 32.005 1.77778 29.7612 1.77778 27.0036V18.9037C1.77778 16.146 3.96311 13.9022 6.64889 13.9022H11.7813C11.7409 14.2052 11.7129 14.5124 11.7129 14.8263V22.9272C11.7129 26.691 14.6951 29.753 18.3613 29.753H24.5484L25.2204 30.3805C24.3058 31.4154 23.0244 32.005 21.6356 32.005ZM38.2222 22.9272C38.2222 25.6843 36.0373 27.9277 33.3516 27.9277H31.5022C31.0116 27.9277 30.6133 28.3365 30.6133 28.8403V32.9474L25.4902 28.165C25.3267 28.0126 25.1133 27.9277 24.8924 27.9277H18.3613C15.6756 27.9277 13.4907 25.6843 13.4907 22.9272V14.8263C13.4907 12.0691 15.6756 9.82579 18.3613 9.82579H33.3516C36.0373 9.82534 38.2222 12.0687 38.2222 14.8263V22.9272Z" fill="#86868B"/>
</svg>
