<svg width="16" height="12" viewBox="0 0 16 12" fill="none" xmlns="http://www.w3.org/2000/svg">
<path d="M6.46402 8.13213L12.9927 0.951321C13.0113 0.930337 13.0309 0.91043 13.0514 0.891649C13.1857 0.765853 13.3435 0.667753 13.5148 0.601234C13.6876 0.534134 13.8719 0.5 14.0572 0.5C14.2425 0.5 14.4268 0.534133 14.5995 0.601234C14.772 0.668203 14.9307 0.767181 15.0656 0.894204C15.6333 1.42536 15.6457 2.29573 15.0961 2.84145L7.57926 11.0558L7.57304 11.0626L7.56659 11.0691C7.43327 11.2045 7.27371 11.311 7.09884 11.3843C6.92402 11.4575 6.73627 11.4965 6.54681 11.4998C6.35735 11.5031 6.16837 11.4706 5.99106 11.4037L6.16774 10.9359L5.99106 11.4037C5.81396 11.3368 5.65087 11.2363 5.51272 11.1064C5.51253 11.1062 5.51234 11.106 5.51216 11.1058L0.933716 6.81698L0.932554 6.81589C0.660349 6.55926 0.5 6.20562 0.5 5.8285C0.5 5.45142 0.660313 5.09781 0.932465 4.84119L6.46402 8.13213ZM6.46402 8.13213L2.95119 4.84119C2.95095 4.84097 2.95071 4.84075 2.95048 4.84052C2.81554 4.71342 2.6567 4.61439 2.48419 4.54739C2.31141 4.48029 2.12714 4.44616 1.94183 4.44616C1.75652 4.44616 1.57224 4.48029 1.39947 4.54739C1.22669 4.61449 1.06763 4.71373 0.932556 4.84111L6.46402 8.13213Z" fill="#6638B6" stroke="#6638B6"/>
</svg>
