<svg width="24" height="24" viewBox="0 0 24 24" fill="none" xmlns="http://www.w3.org/2000/svg">
<path d="M10.464 14.1321L16.9927 6.95132C17.0113 6.93034 17.0309 6.91043 17.0514 6.89165C17.1857 6.76585 17.3435 6.66775 17.5148 6.60123C17.6876 6.53413 17.8719 6.5 18.0572 6.5C18.2425 6.5 18.4268 6.53413 18.5995 6.60123C18.772 6.6682 18.9307 6.76718 19.0656 6.8942C19.6333 7.42536 19.6457 8.29573 19.0961 8.84145L11.5793 17.0558L11.573 17.0626L11.5666 17.0691C11.4333 17.2045 11.2737 17.311 11.0988 17.3843C10.924 17.4575 10.7363 17.4965 10.5468 17.4998C10.3573 17.5031 10.1684 17.4706 9.99106 17.4037L10.1677 16.9359L9.99106 17.4037C9.81396 17.3368 9.65087 17.2363 9.51272 17.1064C9.51253 17.1062 9.51234 17.106 9.51216 17.1058L4.93372 12.817L4.93255 12.8159C4.66035 12.5593 4.5 12.2056 4.5 11.8285C4.5 11.4514 4.66031 11.0978 4.93246 10.8412L10.464 14.1321ZM10.464 14.1321L6.95119 10.8412C6.95095 10.841 6.95071 10.8407 6.95048 10.8405C6.81554 10.7134 6.6567 10.6144 6.48419 10.5474C6.31141 10.4803 6.12714 10.4462 5.94183 10.4462C5.75652 10.4462 5.57224 10.4803 5.39947 10.5474C5.22669 10.6145 5.06763 10.7137 4.93256 10.8411L10.464 14.1321Z" fill="#6638B6" stroke="#6638B6"/>
</svg>
