<svg width="24" height="24" viewBox="0 0 24 24" fill="none" xmlns="http://www.w3.org/2000/svg">
<path d="M17.6862 5.97904C17.4166 5.70946 17.0509 5.55801 16.6697 5.55801C16.2884 5.55801 15.9228 5.70946 15.6532 5.97904L12.0293 9.60297L8.40537 5.97904C8.13579 5.70946 7.77016 5.55801 7.38891 5.55801C7.00766 5.55801 6.64203 5.70946 6.37244 5.97904C6.10286 6.24863 5.95141 6.61426 5.95141 6.99551C5.95141 7.37676 6.10286 7.74239 6.37244 8.01198L9.99636 11.6359L6.37244 15.2598C6.10286 15.5294 5.95141 15.895 5.95141 16.2763C5.95141 16.6575 6.10286 17.0232 6.37244 17.2928C6.64203 17.5623 7.00766 17.7138 7.38891 17.7138C7.77016 17.7138 8.13579 17.5623 8.40537 17.2928L12.0293 13.6688L15.6532 17.2928C15.9228 17.5623 16.2884 17.7138 16.6697 17.7138C17.0509 17.7138 17.4166 17.5623 17.6862 17.2928C17.9557 17.0232 18.1072 16.6575 18.1072 16.2763C18.1072 15.895 17.9557 15.5294 17.6862 15.2598L14.0622 11.6359L17.6862 8.01198C17.9557 7.74239 18.1072 7.37676 18.1072 6.99551C18.1072 6.61426 17.9557 6.24863 17.6862 5.97904Z" fill="#D8D8D8" stroke="#D8D8D8"/>
</svg>
