<svg width="32" height="32" viewBox="0 0 32 32" fill="none" xmlns="http://www.w3.org/2000/svg">
<path d="M26.7812 4.28125H5.21875C4.7002 4.28125 4.28125 4.7002 4.28125 5.21875V26.7812C4.28125 27.2998 4.7002 27.7188 5.21875 27.7188H26.7812C27.2998 27.7188 27.7188 27.2998 27.7188 26.7812V5.21875C27.7188 4.7002 27.2998 4.28125 26.7812 4.28125ZM24.0742 11.1221H22.2021C20.7344 11.1221 20.4502 11.8193 20.4502 12.8447V15.1035H23.9541L23.4971 18.6396H20.4502V27.7188H16.7969V18.6426H13.7412V15.1035H16.7969V12.4961C16.7969 9.46973 18.6455 7.82031 21.3467 7.82031C22.6416 7.82031 23.752 7.91699 24.0771 7.96094V11.1221H24.0742Z" fill="white"/>
</svg>
